<?xml version="1.0" encoding="UTF-8"?>
<svg xmlns="http://www.w3.org/2000/svg" onmouseup="{ if(window.parent.document.onmouseup) window.parent.document.onmouseup(arguments[0]);}" viewBox="0 0 905.64 96.69" data-name="Capa 1" id="Capa_1"><defs><style>.cls-1{fill:#fff;}</style></defs><title/><path data-cppathid="10000" d="M33.47,63.52c-9.85,0-15.9-1-19.54-3.43A10.65,10.65,0,0,1,9.17,52.2h7.48a4.71,4.71,0,0,0,1.87,3.3c2,1.38,5.89,2.09,14.2,2.09,10.81,0,13.65-1.63,13.65-4.18s-2.13-3.38-11.52-4c-1.75-.16-6.18-.41-7.68-.54C14,47.9,9.88,45,9.88,39.55c0-5.13,6.18-9.68,21-9.68,11.32,0,17.12,3,19.83,6.68a10.8,10.8,0,0,1,1.8,4.05H45a4.87,4.87,0,0,0-.88-1.88c-1.37-1.8-4.59-2.92-13.73-2.92C19.86,35.8,16.9,37,16.9,39.51c0,2.26,2.42,2.88,13.06,3.68,2,.12,7,.54,8.6.66,11.19.88,15,3.93,15,9.23C53.55,59.88,47.16,63.52,33.47,63.52Z" class="cls-1"/><path data-cppathid="10001" d="M88.86,63a15.42,15.42,0,0,1-.37-2.63c-1.51,1.54-6.56,3.13-15.2,3.13-9.31,0-14.49-2.09-14.49-6.77v-.62c0-5,5-7.52,18.12-7.56,3.22,0,8.77.33,11.65.63a4.26,4.26,0,0,0-.67-2.43c-1-1.33-4.05-2.46-10.48-2.46-5.88,0-8.81.71-10,1.88a2.5,2.5,0,0,0-.54,1.38H60.51a7.16,7.16,0,0,1,.38-1.8c1.46-4,6.6-6.47,16.24-6.47,10.9,0,15.78,2.42,17,7.56a23.87,23.87,0,0,1,.38,4.84c0,.84-.09,3.88-.09,5.76A18.62,18.62,0,0,0,95.12,63ZM76.38,52.87c-6.14,0-9,.71-10.27,1.84a2,2,0,0,0-.54,1.37,1.48,1.48,0,0,0,.33,1.09c1,1.13,3.72,1.75,8.22,1.75,8.81,0,14.45-1,14.45-5.55C85.81,53.12,80.85,52.87,76.38,52.87Z" class="cls-1"/><path data-cppathid="10002" d="M131.52,63c-.29,0-.46-1.38-.46-11.19,0-4.55-3.09-6.89-9.89-6.89-5.81,0-11.11,2.71-11.11,6.93V63h-6.43v-23h6.22v5.31c2.09-4.47,8.18-6,14.07-6,9.94,0,13.61,4.89,13.61,11.36,0,11.65.13,11.86.33,12.32Z" class="cls-1"/><path data-cppathid="10003" d="M147.38,36.92V30.33h6.72v6.59ZM148,63c-.37-.09-.54-1.13-.54-3.47V40.05H154V59.51c0,2.59.05,3.17.59,3.51Z" class="cls-1"/><path data-cppathid="10004" d="M173.34,45.69v8.39c0,3.05,1.34,4.18,5,4.18a42.32,42.32,0,0,0,6.05-.51v4.93a34.56,34.56,0,0,1-8.06.84c-5.59,0-9.43-1.8-9.43-8.1V45.69h-7.06v-5.3h7.06c.17-1.55.17-5.89.17-5.89l6.22-.17v6.06h11.35v5.3Z" class="cls-1"/><path data-cppathid="10005" d="M219,63a16.53,16.53,0,0,1-.37-2.63c-1.5,1.54-6.56,3.13-15.2,3.13-9.31,0-14.48-2.09-14.48-6.77v-.62c0-5,5-7.52,18.11-7.56,3.22,0,8.77.33,11.65.63a4.18,4.18,0,0,0-.67-2.43c-1-1.33-4.05-2.46-10.47-2.46-5.89,0-8.81.71-10,1.88a2.43,2.43,0,0,0-.54,1.38h-6.39a7.59,7.59,0,0,1,.37-1.8c1.46-4,6.6-6.47,16.24-6.47,10.9,0,15.78,2.42,17,7.56a23.93,23.93,0,0,1,.37,4.84c0,.84-.08,3.88-.08,5.76a18.3,18.3,0,0,0,.71,5.56ZM206.48,52.87c-6.13,0-9,.71-10.27,1.84a2,2,0,0,0-.54,1.37,1.48,1.48,0,0,0,.33,1.09c1,1.13,3.72,1.75,8.23,1.75,8.81,0,14.44-1,14.44-5.55C215.92,53.12,211,52.87,206.48,52.87Z" class="cls-1"/><path data-cppathid="10006" d="M242.54,45.69v8.39c0,3.05,1.34,4.18,5,4.18a42.34,42.34,0,0,0,6.06-.51v4.93a34.56,34.56,0,0,1-8.06.84c-5.6,0-9.44-1.8-9.44-8.1V45.69h-7v-5.3h7c.17-1.55.17-5.89.17-5.89l6.22-.17v6.06h11.36v5.3Z" class="cls-1"/><path data-cppathid="10007" d="M261.07,36.92V30.33h6.73v6.59Zm.67,26.1c-.37-.09-.54-1.13-.54-3.47V40.05h6.51V59.51c0,2.59,0,3.17.59,3.51Z" class="cls-1"/><path data-cppathid="10008" d="M313.88,56.92C311,61,305,63.52,295.51,63.52c-8.89,0-15.19-2.51-18.16-6.52a10.2,10.2,0,0,1-1.83-5.59A8.86,8.86,0,0,1,277.27,46c3-4.09,9.06-6.72,18.24-6.72,9.52,0,15.37,2.92,18.21,6.6a9.17,9.17,0,0,1,.16,11Zm-6.26-8.81c-2.09-2-6.26-3.46-12.11-3.46s-9.77,1.33-12.15,3.5a4.9,4.9,0,0,0-1.29,3.3,4.82,4.82,0,0,0,1.34,3.3c1.92,2.13,6.3,3.59,12.1,3.59,6.14,0,10.19-1.34,12.24-3.63a5,5,0,0,0,1.33-3.26A4.28,4.28,0,0,0,307.62,48.11Z" class="cls-1"/><path data-cppathid="10009" d="M350.57,63c-.29,0-.46-1.38-.46-11.19,0-4.55-3.09-6.89-9.89-6.89-5.81,0-11.11,2.71-11.11,6.93V63h-6.43v-23h6.22v5.31c2.09-4.47,8.19-6,14.07-6,9.94,0,13.61,4.89,13.61,11.36,0,11.65.13,11.86.34,12.32Z" class="cls-1"/><path data-cppathid="10010" d="M424.58,49.57c-2.3,3.18-6.35,4.55-12.44,4.55H392.43V63h-6.76V30.41h26.51c6.05,0,10.14,1.42,12.06,3.92a12.7,12.7,0,0,1,2.3,8A12.1,12.1,0,0,1,424.58,49.57ZM419,38.84c-1-1.63-3.63-2.59-8-2.59H392.39V48h18.5c4.63,0,7-.88,8.09-2.55a6,6,0,0,0,.67-3.3A6.81,6.81,0,0,0,419,38.84Z" class="cls-1"/><path data-cppathid="10011" d="M458.89,46.23a38.53,38.53,0,0,0-7.35-.67c-5.64,0-11,3-11,9.15V63h-6.47v-23h6.26v5.89c1.13-3.21,5.55-5.8,11.06-6.14a34,34,0,0,1,7.48.21Z" class="cls-1"/><path data-cppathid="10012" d="M499.46,56.92c-2.84,4.09-8.94,6.6-18.37,6.6-8.89,0-15.2-2.51-18.16-6.52a10.14,10.14,0,0,1-1.84-5.59A8.87,8.87,0,0,1,462.85,46c3-4.09,9.06-6.72,18.24-6.72,9.52,0,15.36,2.92,18.2,6.6a9.19,9.19,0,0,1,.17,11Zm-6.26-8.81c-2.09-2-6.26-3.46-12.11-3.46s-9.77,1.33-12.15,3.5a4.81,4.81,0,0,0,0,6.6c1.92,2.13,6.31,3.59,12.11,3.59,6.14,0,10.19-1.34,12.23-3.63a5,5,0,0,0,1.34-3.26A4.32,4.32,0,0,0,493.2,48.11Z" class="cls-1"/><path data-cppathid="10013" d="M534.35,41.18c1.84-1.54,6.93-1.84,9.23-1.46v4.47c-2.55,0-5.43.16-6.18.62a5.4,5.4,0,0,1,1.71,2.84,7.11,7.11,0,0,1-.12,2.67c-.92,3.84-5,6.39-15.58,6.39a37.61,37.61,0,0,1-10.14-1.29,1.29,1.29,0,0,0-1.17,1.29c0,1,.88,1.59,13.07,1.59,13.52,0,17.57,1.46,17.57,5.88,0,5.06-6.42,7.39-19.78,7.39-14.24,0-18.46-2.75-18.46-6,0-2.54,2.93-3.8,5.39-4.17-2-.75-3.38-2-3.38-3.89A3.8,3.8,0,0,1,510.43,54,6.59,6.59,0,0,1,506,48.49a6.46,6.46,0,0,1,.05-2c.71-4,5.76-7.39,16.19-7.39C527.71,39.09,531.89,40,534.35,41.18Zm1.71,23.42c0-1.54-1.46-1.58-11.27-1.84-4-.08-9.47,0-11.94-.12-1.21.17-2.13.71-2.13,1.75,0,1.26,2,2.47,11.82,2.47C533.77,66.86,536,65.94,536.06,64.6Zm-23.83-17a4.14,4.14,0,0,0-.05,1c.26,2.38,3.68,3.68,10.23,3.68,7.31,0,10.06-1.38,10.4-3.72a6.94,6.94,0,0,0,0-1.25c-.42-2.09-3.3-3.47-10.23-3.47C515.9,43.89,512.6,45.19,512.23,47.61Z" class="cls-1"/><path data-cppathid="10014" d="M572.59,46.23a38.53,38.53,0,0,0-7.35-.67c-5.64,0-11,3-11,9.15V63h-6.47v-23h6.26v5.89c1.13-3.21,5.55-5.8,11.06-6.14a34,34,0,0,1,7.48.21Z" class="cls-1"/><path data-cppathid="10015" d="M604.43,63a16.53,16.53,0,0,1-.37-2.63c-1.5,1.54-6.56,3.13-15.2,3.13-9.31,0-14.48-2.09-14.48-6.77v-.62c0-5,5-7.52,18.11-7.56,3.22,0,8.77.33,11.65.63a4.18,4.18,0,0,0-.67-2.43c-1-1.33-4.05-2.46-10.48-2.46-5.88,0-8.8.71-10,1.88a2.43,2.43,0,0,0-.54,1.38h-6.39a7.59,7.59,0,0,1,.37-1.8c1.46-4,6.6-6.47,16.24-6.47,10.9,0,15.78,2.42,17,7.56a23.87,23.87,0,0,1,.38,4.84c0,.84-.08,3.88-.08,5.76A18.3,18.3,0,0,0,610.7,63ZM592,52.87c-6.13,0-9,.71-10.27,1.84a2,2,0,0,0-.54,1.37,1.48,1.48,0,0,0,.33,1.09c1,1.13,3.72,1.75,8.23,1.75,8.81,0,14.44-1,14.44-5.55C601.39,53.12,596.42,52.87,592,52.87Z" class="cls-1"/><path data-cppathid="10016" d="M668.05,51.87c0-3.76-1.75-6.93-8.93-6.93-5,0-9.31,2-9.31,6.93V63h-6V51.33c0-3.93-3.51-6.39-8.69-6.39-5.84,0-9.52,3.3-9.52,6.8V63H619.2v-23h6.22v5.31c1.63-3.93,6.89-5.89,11.94-5.89,5.31,0,10,1.75,11.53,6,1.75-3.92,6.05-6,12.19-6,9.39,0,12.61,4.59,12.61,11.23,0,11.73,0,12,.41,12.32h-5.59C668.05,63,668.05,60.55,668.05,51.87Z" class="cls-1"/></svg>