<?xml version="1.0" encoding="UTF-8"?>
<svg xmlns="http://www.w3.org/2000/svg" onmouseup="{ if(window.parent.document.onmouseup) window.parent.document.onmouseup(arguments[0]);}" viewBox="0 0 850.37 95.58" data-name="Capa 1" id="Capa_1"><defs><style>.cls-1{fill:#fff;}</style></defs><title/><path data-cppathid="10000" d="M33.24,12.47V39H26.39V12.47H8V6.37H51.53v6.1Z" class="cls-1"/><path data-cppathid="10001" d="M91,39H84.46c-.34-.5-.42-1.71-.42-11.23,0-4.51-3-6.85-9.94-6.85C68.26,20.9,63,23.57,63,28V39H56.61V5.83h6.22V21.36c2-4.17,7.18-6,14.07-6,9.14,0,13.61,4.13,13.61,11.06C90.51,38.06,90.59,38.85,91,39Z" class="cls-1"/><path data-cppathid="10002" d="M134.55,34.35C132,37,126.66,39.52,117.1,39.52c-8.77,0-15.16-1.92-18-6.26a10.68,10.68,0,0,1-1.75-6,9.88,9.88,0,0,1,1.79-5.64c3-4.05,9.52-6.35,17.91-6.35,10.31,0,17.24,3.59,18.87,10a22.4,22.4,0,0,1,.59,4.39H103.78A4.12,4.12,0,0,0,105.66,32c2,1.71,5.88,2.79,11.81,2.79A25.9,25.9,0,0,0,127,33.3a6.77,6.77,0,0,0,2-1.5h7.1A7.23,7.23,0,0,1,134.55,34.35ZM128.62,23c-1.55-1.63-5.6-2.92-11.73-2.92-5.85,0-10.48,1.25-12.11,3.13a3.66,3.66,0,0,0-1,2.17H130A3.43,3.43,0,0,0,128.62,23Z" class="cls-1"/><path data-cppathid="10003" d="M205.09,39V15.48L190.31,39h-6.89L169,15.48V39h-6.6V6.37h8.52l16.11,26.1,16.2-26.1h8.43V39Z" class="cls-1"/><path data-cppathid="10004" d="M256,39h-6.26l-.17-4.13c-3,3.88-8.77,4.71-14.2,4.71-8.39,0-13.48-2.5-13.48-9.81,0-13.23-.17-13.4-.42-13.73h6.64c.21,0,.25,5.63.25,11.56,0,5,2.46,6.56,9.6,6.56,6.85,0,11.4-2.84,11.4-6.68V16h6.51V34.35C255.84,37.6,256,38.85,256,39Z" class="cls-1"/><path data-cppathid="10005" d="M281,39.48c-12.32,0-16.78-1.84-18.16-6.43a5.45,5.45,0,0,1-.29-1.54h6.3a2.06,2.06,0,0,0,.46,1.25c1,1.13,4.05,1.75,11.73,1.75,9.73,0,11.11-1.08,11.11-2.5,0-1.59-1.26-1.92-9.69-2.34-1.63-.08-4.55-.29-6.51-.42-9.23-.54-12.82-2.67-12.82-6.85,0-4.59,5.34-7.18,16-7.18s15.57,1.59,17.33,5.89a6.67,6.67,0,0,1,.37,1.84h-6.3a2.46,2.46,0,0,0-.38-.88c-1-1.08-3.84-1.79-10.6-1.79-9.19,0-10.35.87-10.35,2.17s1,1.67,9,2.08c2,.13,5,.3,7,.38,9.73.38,13.07,2.5,13.07,7.06C298.25,36.85,293.57,39.48,281,39.48Z" class="cls-1"/><path data-cppathid="10006" d="M339.66,39h-6.52c-.33-.5-.41-1.71-.41-11.23,0-4.51-3-6.85-9.94-6.85-5.84,0-11.06,2.67-11.06,7.1V39H305.3V5.83h6.22V21.36c2-4.17,7.18-6,14.07-6,9.14,0,13.61,4.13,13.61,11.06C339.2,38.06,339.28,38.85,339.66,39Z" class="cls-1"/><path data-cppathid="10007" d="M373.42,22.2a38.45,38.45,0,0,0-7.35-.67c-5.63,0-11,3-11,9.14V39h-6.48V16h6.27V21.9c1.12-3.21,5.55-5.8,11.06-6.13a33.91,33.91,0,0,1,7.47.21Z" class="cls-1"/><path data-cppathid="10008" d="M414,32.88c-2.84,4.1-8.94,6.6-18.37,6.6-8.89,0-15.2-2.5-18.16-6.51a10.17,10.17,0,0,1-1.84-5.6A8.81,8.81,0,0,1,377.38,22c3-4.09,9.06-6.72,18.25-6.72,9.52,0,15.36,2.92,18.2,6.59a9.19,9.19,0,0,1,.17,11Zm-6.27-8.81c-2.08-2-6.26-3.46-12.1-3.46s-9.77,1.34-12.15,3.51a4.77,4.77,0,0,0,0,6.59c1.92,2.13,6.3,3.59,12.11,3.59,6.13,0,10.18-1.33,12.23-3.63a5,5,0,0,0,1.34-3.26A4.32,4.32,0,0,0,407.73,24.07Z" class="cls-1"/><path data-cppathid="10009" d="M458.45,32.88c-2.84,4.1-8.93,6.6-18.37,6.6-8.89,0-15.2-2.5-18.16-6.51a10.17,10.17,0,0,1-1.84-5.6A8.82,8.82,0,0,1,421.84,22c3-4.09,9.06-6.72,18.24-6.72,9.52,0,15.36,2.92,18.2,6.59a9.19,9.19,0,0,1,.17,11Zm-6.26-8.81c-2.09-2-6.27-3.46-12.11-3.46s-9.77,1.34-12.15,3.51a4.8,4.8,0,0,0,0,6.59c1.92,2.13,6.31,3.59,12.11,3.59,6.14,0,10.19-1.33,12.23-3.63a5,5,0,0,0,1.34-3.26A4.35,4.35,0,0,0,452.19,24.07Z" class="cls-1"/><path data-cppathid="10010" d="M516.09,27.83c0-3.76-1.75-6.93-8.93-6.93-5,0-9.31,2.05-9.31,6.93V39h-6V27.29c0-3.92-3.51-6.39-8.68-6.39-5.85,0-9.52,3.3-9.52,6.81V39h-6.43V16h6.22v5.3c1.63-3.92,6.89-5.89,11.94-5.89,5.3,0,10,1.76,11.52,6,1.76-3.92,6.06-6,12.19-6,9.4,0,12.61,4.6,12.61,11.23,0,11.73,0,12,.42,12.32h-5.6C516.09,39,516.09,36.52,516.09,27.83Z" class="cls-1"/><path data-cppathid="10011" d="M551,39V6.37h7V39Z" class="cls-1"/><path data-cppathid="10012" d="M596.44,39c-.29,0-.46-1.38-.46-11.19,0-4.55-3.09-6.89-9.89-6.89-5.81,0-11.11,2.72-11.11,6.93V39h-6.43V16h6.22v5.3c2.09-4.47,8.18-6,14.07-6,9.94,0,13.61,4.88,13.61,11.35,0,11.65.13,11.86.34,12.32Z" class="cls-1"/><path data-cppathid="10013" d="M641.35,19.73V6.08h6.35V36.22A22.81,22.81,0,0,0,648,39h-6.26l-.17-4.26c-2,3.09-7.93,4.72-14,4.72-8.43,0-13.86-2.09-16.4-5.8a10.51,10.51,0,0,1-1.92-6.1,10.9,10.9,0,0,1,1.87-6.3c2.51-3.8,7.69-6,15.7-6C633.5,15.27,639,16.64,641.35,19.73ZM616.89,24a5.39,5.39,0,0,0-1.25,3.55A5.15,5.15,0,0,0,616.89,31c2,2.25,6.09,3.34,12.11,3.34s10-1.17,11.6-3.68a5.39,5.39,0,0,0,.88-3.17,5.14,5.14,0,0,0-1.3-3.59c-2-2.17-5.92-3.3-11.73-3.3S618.64,21.78,616.89,24Z" class="cls-1"/><path data-cppathid="10014" d="M690.9,39h-6.26l-.17-4.13c-3,3.88-8.77,4.71-14.19,4.71-8.39,0-13.49-2.5-13.49-9.81,0-13.23-.17-13.4-.42-13.73H663c.21,0,.25,5.63.25,11.56,0,5,2.47,6.56,9.61,6.56,6.84,0,11.39-2.84,11.39-6.68V16h6.52V34.35C690.78,37.6,690.9,38.85,690.9,39Z" class="cls-1"/><path data-cppathid="10015" d="M715.94,39.48c-12.32,0-16.78-1.84-18.16-6.43a5.45,5.45,0,0,1-.29-1.54h6.3a2.06,2.06,0,0,0,.46,1.25c1,1.13,4,1.75,11.73,1.75,9.73,0,11.11-1.08,11.11-2.5,0-1.59-1.26-1.92-9.69-2.34-1.63-.08-4.55-.29-6.51-.42-9.23-.54-12.82-2.67-12.82-6.85,0-4.59,5.35-7.18,16-7.18s15.58,1.59,17.33,5.89A6.67,6.67,0,0,1,731.8,23h-6.3a2.46,2.46,0,0,0-.38-.88c-1-1.08-3.84-1.79-10.6-1.79-9.18,0-10.35.87-10.35,2.17s1,1.67,9,2.08c2,.13,5,.3,7,.38,9.72.38,13.06,2.5,13.06,7.06C733.18,36.85,728.51,39.48,715.94,39.48Z" class="cls-1"/><path data-cppathid="10016" d="M749,21.65V30c0,3.05,1.33,4.18,5,4.18a43.9,43.9,0,0,0,6-.5v4.93a35.24,35.24,0,0,1-8.06.83c-5.59,0-9.43-1.79-9.43-8.1V21.65h-7.06v-5.3h7.06c.17-1.54.17-5.88.17-5.88L749,10.3v6.05h11.36v5.3Z" class="cls-1"/><path data-cppathid="10017" d="M792,22.2a38.45,38.45,0,0,0-7.35-.67c-5.63,0-11,3-11,9.14V39h-6.47V16h6.26V21.9c1.13-3.21,5.56-5.8,11.07-6.13A33.91,33.91,0,0,1,792,16Z" class="cls-1"/><path data-cppathid="10018" d="M812.9,46.74h-7.47l5.76-7.8L794.12,16H801L814.7,33.76,827.56,16h6.8Z" class="cls-1"/><path data-cppathid="10019" d="M35.33,89.57c-9.86,0-15.91-1-19.54-3.42A10.65,10.65,0,0,1,11,78.25H18.5a4.69,4.69,0,0,0,1.88,3.3c2,1.38,5.89,2.09,14.2,2.09,10.81,0,13.65-1.63,13.65-4.17s-2.13-3.39-11.53-4C35,75.25,30.53,75,29,74.87,15.87,74,11.74,71.07,11.74,65.6c0-5.13,6.18-9.68,21-9.68,11.31,0,17.12,3,19.83,6.68a11,11,0,0,1,1.8,4.05h-7.6a4.87,4.87,0,0,0-.88-1.88C44.55,63,41.34,61.85,32.2,61.85c-10.48,0-13.45,1.21-13.45,3.71,0,2.26,2.42,2.88,13.07,3.68,2,.12,7,.54,8.6.66,11.19.88,15,3.93,15,9.23C55.41,85.94,49,89.57,35.33,89.57Z" class="cls-1"/><path data-cppathid="10020" d="M90.72,89.07a16.06,16.06,0,0,1-.38-2.63c-1.5,1.54-6.55,3.13-15.19,3.13-9.31,0-14.49-2.09-14.49-6.76v-.63c0-5,5-7.52,18.12-7.56,3.21,0,8.77.34,11.65.63a4.21,4.21,0,0,0-.67-2.42c-1.05-1.34-4.05-2.47-10.48-2.47-5.89,0-8.81.71-10,1.88a2.5,2.5,0,0,0-.54,1.38H62.37a7.09,7.09,0,0,1,.38-1.79c1.46-4,6.59-6.48,16.24-6.48,10.89,0,15.78,2.43,17,7.56a23.29,23.29,0,0,1,.37,4.84c0,.84-.08,3.89-.08,5.77A18.27,18.27,0,0,0,97,89.07ZM78.24,78.92c-6.14,0-9,.71-10.27,1.84a2,2,0,0,0-.55,1.38,1.44,1.44,0,0,0,.34,1.08C68.72,84.35,71.47,85,76,85c8.81,0,14.45-1,14.45-5.56C87.67,79.17,82.7,78.92,78.24,78.92Z" class="cls-1"/><path data-cppathid="10021" d="M133.38,89.07c-.3,0-.46-1.38-.46-11.19,0-4.55-3.09-6.89-9.9-6.89-5.8,0-11.1,2.71-11.1,6.93V89.07h-6.43v-23h6.22v5.3c2.09-4.47,8.18-6,14.07-6,9.93,0,13.61,4.88,13.61,11.35,0,11.65.12,11.86.33,12.32Z" class="cls-1"/><path data-cppathid="10022" d="M149.23,63v-6.6H156V63Zm.67,26.09c-.38-.09-.54-1.13-.54-3.47V66.11h6.51V85.56c0,2.59,0,3.17.58,3.51Z" class="cls-1"/><path data-cppathid="10023" d="M175.2,71.74v8.39c0,3.05,1.33,4.18,5,4.18a43.92,43.92,0,0,0,6.06-.5v4.92a34.56,34.56,0,0,1-8.06.84c-5.59,0-9.43-1.8-9.43-8.1V71.74h-7.06v-5.3h7.06c.16-1.54.16-5.89.16-5.89l6.22-.16v6h11.36v5.3Z" class="cls-1"/><path data-cppathid="10024" d="M220.82,89.07a15.26,15.26,0,0,1-.37-2.63c-1.51,1.54-6.56,3.13-15.2,3.13-9.31,0-14.49-2.09-14.49-6.76v-.63c0-5,5-7.52,18.12-7.56,3.22,0,8.77.34,11.65.63a4.21,4.21,0,0,0-.67-2.42c-1-1.34-4.05-2.47-10.48-2.47-5.88,0-8.81.71-10,1.88a2.5,2.5,0,0,0-.54,1.38h-6.39a7.09,7.09,0,0,1,.38-1.79c1.46-4,6.6-6.48,16.24-6.48,10.9,0,15.78,2.43,17,7.56a23.93,23.93,0,0,1,.38,4.84c0,.84-.09,3.89-.09,5.77a18.6,18.6,0,0,0,.71,5.55ZM208.34,78.92c-6.14,0-9,.71-10.27,1.84a2,2,0,0,0-.54,1.38,1.47,1.47,0,0,0,.33,1.08c1,1.13,3.71,1.76,8.22,1.76,8.81,0,14.45-1,14.45-5.56C217.77,79.17,212.81,78.92,208.34,78.92Z" class="cls-1"/><path data-cppathid="10025" d="M244.4,71.74v8.39c0,3.05,1.34,4.18,5,4.18a43.9,43.9,0,0,0,6-.5v4.92a34.52,34.52,0,0,1-8,.84c-5.6,0-9.44-1.8-9.44-8.1V71.74h-7.06v-5.3h7.06c.17-1.54.17-5.89.17-5.89l6.22-.16v6h11.35v5.3Z" class="cls-1"/><path data-cppathid="10026" d="M262.93,63v-6.6h6.72V63Zm.67,26.09c-.38-.09-.54-1.13-.54-3.47V66.11h6.51V85.56c0,2.59,0,3.17.58,3.51Z" class="cls-1"/><path data-cppathid="10027" d="M315.74,83c-2.84,4.09-8.93,6.6-18.37,6.6-8.89,0-15.2-2.51-18.16-6.51a10.17,10.17,0,0,1-1.84-5.6,8.82,8.82,0,0,1,1.76-5.38c3-4.1,9.06-6.73,18.24-6.73,9.52,0,15.36,2.93,18.2,6.6a9.19,9.19,0,0,1,.17,11Zm-6.26-8.81c-2.09-2-6.27-3.46-12.11-3.46S287.6,72,285.22,74.21a4.8,4.8,0,0,0,0,6.59c1.92,2.13,6.31,3.59,12.11,3.59,6.14,0,10.19-1.33,12.23-3.63a5,5,0,0,0,1.34-3.26A4.32,4.32,0,0,0,309.48,74.16Z" class="cls-1"/><path data-cppathid="10028" d="M352.43,89.07c-.29,0-.46-1.38-.46-11.19,0-4.55-3.09-6.89-9.9-6.89-5.8,0-11.1,2.71-11.1,6.93V89.07h-6.43v-23h6.22v5.3c2.09-4.47,8.18-6,14.07-6,9.94,0,13.61,4.88,13.61,11.35,0,11.65.12,11.86.33,12.32Z" class="cls-1"/><path data-cppathid="10029" d="M426.43,75.62c-2.29,3.18-6.34,4.56-12.44,4.56h-19.7v8.89h-6.76V56.46H414c6,0,10.14,1.42,12.06,3.93,1.38,1.75,2.3,4.38,2.3,8A12,12,0,0,1,426.43,75.62ZM420.84,64.9c-1-1.63-3.63-2.59-8-2.59H394.25V74h18.49c4.64,0,7-.88,8.1-2.55a6.07,6.07,0,0,0,.67-3.3A6.77,6.77,0,0,0,420.84,64.9Z" class="cls-1"/><path data-cppathid="10030" d="M460.74,72.28a39.3,39.3,0,0,0-7.34-.66c-5.64,0-11,3-11,9.14v8.31h-6.48v-23h6.27V72c1.12-3.21,5.55-5.8,11.06-6.13a33.41,33.41,0,0,1,7.47.2Z" class="cls-1"/><path data-cppathid="10031" d="M501.32,83c-2.84,4.09-8.94,6.6-18.37,6.6-8.9,0-15.2-2.51-18.16-6.51a10.17,10.17,0,0,1-1.84-5.6,8.81,8.81,0,0,1,1.75-5.38c3-4.1,9.06-6.73,18.25-6.73,9.52,0,15.36,2.93,18.2,6.6a9.19,9.19,0,0,1,.17,11Zm-6.27-8.81c-2.08-2-6.26-3.46-12.1-3.46S473.18,72,470.8,74.21a4.77,4.77,0,0,0,0,6.59c1.92,2.13,6.3,3.59,12.11,3.59,6.13,0,10.18-1.33,12.23-3.63a5,5,0,0,0,1.34-3.26A4.29,4.29,0,0,0,495.05,74.16Z" class="cls-1"/><path data-cppathid="10032" d="M536.21,67.23c1.84-1.54,6.93-1.83,9.23-1.46v4.47c-2.55,0-5.43.17-6.18.63A5.37,5.37,0,0,1,541,73.7a7.38,7.38,0,0,1-.13,2.68c-.92,3.84-5.05,6.38-15.57,6.38a37.55,37.55,0,0,1-10.14-1.29A1.29,1.29,0,0,0,514,82.76c0,1,.87,1.59,13.07,1.59,13.52,0,17.57,1.46,17.57,5.89,0,5.05-6.43,7.39-19.79,7.39-14.23,0-18.45-2.76-18.45-6,0-2.54,2.92-3.8,5.38-4.17-2-.75-3.38-2-3.38-3.88A3.8,3.8,0,0,1,512.29,80a6.57,6.57,0,0,1-4.47-5.47,6.71,6.71,0,0,1,0-2c.71-4.05,5.76-7.39,16.2-7.39C529.57,65.15,533.75,66,536.21,67.23Zm1.71,23.42c0-1.54-1.46-1.58-11.27-1.83-4-.09-9.48,0-11.94-.13-1.21.17-2.13.71-2.13,1.75,0,1.26,2,2.47,11.81,2.47C535.62,92.91,537.88,92,537.92,90.65Zm-23.84-17a4.7,4.7,0,0,0,0,1c.25,2.38,3.67,3.67,10.23,3.67,7.3,0,10.06-1.38,10.39-3.72a6.13,6.13,0,0,0,0-1.25c-.42-2.09-3.3-3.46-10.23-3.46C517.76,70,514.46,71.24,514.08,73.66Z" class="cls-1"/><path data-cppathid="10033" d="M574.44,72.28a39.33,39.33,0,0,0-7.35-.66c-5.63,0-11,3-11,9.14v8.31h-6.48v-23h6.27V72c1.12-3.21,5.55-5.8,11.06-6.13a33.41,33.41,0,0,1,7.47.2Z" class="cls-1"/><path data-cppathid="10034" d="M606.29,89.07a16.06,16.06,0,0,1-.38-2.63c-1.5,1.54-6.55,3.13-15.19,3.13-9.31,0-14.49-2.09-14.49-6.76v-.63c0-5,5-7.52,18.12-7.56,3.22,0,8.77.34,11.65.63a4.21,4.21,0,0,0-.67-2.42c-1-1.34-4.05-2.47-10.48-2.47-5.88,0-8.81.71-10,1.88a2.5,2.5,0,0,0-.54,1.38h-6.39a7.09,7.09,0,0,1,.38-1.79c1.46-4,6.6-6.48,16.24-6.48,10.9,0,15.78,2.43,17,7.56a23.93,23.93,0,0,1,.38,4.84c0,.84-.09,3.89-.09,5.77a18.6,18.6,0,0,0,.71,5.55ZM593.81,78.92c-6.14,0-9,.71-10.27,1.84a2,2,0,0,0-.54,1.38,1.47,1.47,0,0,0,.33,1.08c1,1.13,3.71,1.76,8.22,1.76,8.81,0,14.45-1,14.45-5.56C603.24,79.17,598.28,78.92,593.81,78.92Z" class="cls-1"/><path data-cppathid="10035" d="M669.91,77.92c0-3.76-1.76-6.93-8.94-6.93-5,0-9.31,2.05-9.31,6.93V89.07h-6V77.38c0-3.93-3.5-6.39-8.68-6.39-5.85,0-9.52,3.3-9.52,6.81V89.07h-6.43v-23h6.22v5.3c1.63-3.93,6.89-5.89,11.94-5.89,5.3,0,10,1.75,11.52,6,1.76-3.92,6.06-6,12.19-6,9.4,0,12.61,4.59,12.61,11.23,0,11.73,0,12,.42,12.32h-5.59C669.91,89.07,669.91,86.6,669.91,77.92Z" class="cls-1"/></svg>