<?xml version="1.0" encoding="UTF-8"?>
<svg xmlns="http://www.w3.org/2000/svg" onmouseup="{ if(window.parent.document.onmouseup) window.parent.document.onmouseup(arguments[0]);}" viewBox="0 0 920.92 96.69" data-name="Capa 1" id="Capa_1"><defs><style>.cls-1{fill:#fff;}</style></defs><title/><path data-cppathid="10000" d="M56.7,59.85V36.34L41.92,59.85H35L20.63,36.34V59.85H14V27.24h8.51L38.67,53.33,54.86,27.24H63.3V59.85Z" class="cls-1"/><path data-cppathid="10001" d="M101.4,59.85a15.26,15.26,0,0,1-.37-2.63c-1.51,1.54-6.56,3.13-15.2,3.13-9.31,0-14.49-2.09-14.49-6.77V53c0-5,5-7.52,18.12-7.56,3.22,0,8.77.34,11.65.63a4.21,4.21,0,0,0-.67-2.42c-1-1.34-4-2.47-10.48-2.47-5.88,0-8.81.71-10,1.88a2.44,2.44,0,0,0-.55,1.38H73.06a7.22,7.22,0,0,1,.37-1.8c1.46-4,6.6-6.47,16.24-6.47,10.9,0,15.78,2.43,17,7.56a23.93,23.93,0,0,1,.38,4.84c0,.84-.09,3.89-.09,5.76a18.62,18.62,0,0,0,.71,5.56ZM88.92,49.7c-6.14,0-9,.71-10.27,1.84a2,2,0,0,0-.54,1.38A1.47,1.47,0,0,0,78.44,54c1,1.13,3.72,1.76,8.22,1.76,8.81,0,14.45-1,14.45-5.56C98.35,50,93.39,49.7,88.92,49.7Z" class="cls-1"/><path data-cppathid="10002" d="M131.58,60.35c-12.32,0-16.79-1.84-18.16-6.43a5.49,5.49,0,0,1-.3-1.55h6.31a2,2,0,0,0,.46,1.26c1,1.12,4,1.75,11.73,1.75,9.73,0,11.1-1.09,11.1-2.5,0-1.59-1.25-1.93-9.68-2.34-1.63-.09-4.55-.29-6.51-.42-9.23-.54-12.82-2.67-12.82-6.85,0-4.59,5.34-7.18,16-7.18s15.57,1.59,17.33,5.89a6.67,6.67,0,0,1,.37,1.84h-6.3a2.46,2.46,0,0,0-.38-.88c-1-1.09-3.84-1.8-10.6-1.8-9.19,0-10.36.88-10.36,2.17s1,1.67,9,2.09c2,.13,5,.29,7,.38,9.73.37,13.07,2.5,13.07,7C148.82,57.72,144.14,60.35,131.58,60.35Z" class="cls-1"/><path data-cppathid="10003" d="M164.68,42.52v8.39c0,3.05,1.33,4.18,5,4.18a43.92,43.92,0,0,0,6.06-.5v4.92a34.56,34.56,0,0,1-8.06.84c-5.59,0-9.44-1.8-9.44-8.1V42.52h-7v-5.3h7c.17-1.54.17-5.89.17-5.89l6.22-.16v6H176v5.3Z" class="cls-1"/><path data-cppathid="10004" d="M217.4,55.21c-2.55,2.63-7.89,5.18-17.45,5.18-8.77,0-15.16-1.92-18-6.26a10.77,10.77,0,0,1-1.75-6.06A9.85,9.85,0,0,1,182,42.44c3-4,9.52-6.35,17.91-6.35,10.32,0,17.25,3.59,18.87,10a21.57,21.57,0,0,1,.59,4.38H186.63a4.09,4.09,0,0,0,1.88,2.38c2,1.72,5.89,2.8,11.81,2.8a25.86,25.86,0,0,0,9.48-1.46,6.64,6.64,0,0,0,2-1.5h7.1A7.11,7.11,0,0,1,217.4,55.21ZM211.47,43.9c-1.54-1.63-5.59-2.92-11.73-2.92-5.85,0-10.48,1.25-12.11,3.13a3.7,3.7,0,0,0-1,2.17h26.18A3.45,3.45,0,0,0,211.47,43.9Z" class="cls-1"/><path data-cppathid="10005" d="M250.41,43.06a39.3,39.3,0,0,0-7.34-.66c-5.64,0-11,3-11,9.14v8.31h-6.47v-23h6.26v5.88c1.12-3.21,5.55-5.8,11.06-6.13a33.41,33.41,0,0,1,7.47.2Z" class="cls-1"/><path data-cppathid="10006" d="M318.87,51.54c-3,5.51-9.64,8.81-21.71,8.81S278,56.72,274.87,51.71a15.77,15.77,0,0,1-2.26-8.23,14.34,14.34,0,0,1,1.92-7.55c3.3-5.39,10.11-9.4,22.26-9.4s18.32,3.55,21.87,9.1a12.35,12.35,0,0,1,1.67,4.6h-7.22a6.37,6.37,0,0,0-1.59-2.72c-2.21-2.42-7.14-4.63-14.78-4.63-8.1,0-14,2.38-16.24,6.55a8.74,8.74,0,0,0-.87,4,7.87,7.87,0,0,0,1.12,4.3c2.76,4.43,9.69,6.35,16,6.35,7.38,0,12.27-1.09,15.36-4.76a6.64,6.64,0,0,0,1.17-2.51h7.14A17.28,17.28,0,0,1,318.87,51.54Z" class="cls-1"/><path data-cppathid="10007" d="M328.34,59.85c-.25-.09-.42-.92-.42-2.34V30.08a15.61,15.61,0,0,0-.21-3.26h6.43a20.63,20.63,0,0,1,.17,3.14V57.18c0,1.21.08,2.5.5,2.67Z" class="cls-1"/><path data-cppathid="10008" d="M379.14,55.21c-2.55,2.63-7.89,5.18-17.45,5.18-8.77,0-15.15-1.92-18-6.26a10.71,10.71,0,0,1-1.76-6.06,9.78,9.78,0,0,1,1.8-5.63c3-4,9.52-6.35,17.91-6.35,10.31,0,17.24,3.59,18.87,10a22.28,22.28,0,0,1,.58,4.38H348.37a4.09,4.09,0,0,0,1.88,2.38c2,1.72,5.89,2.8,11.82,2.8a25.83,25.83,0,0,0,9.47-1.46,6.82,6.82,0,0,0,2-1.5h7.09A7.11,7.11,0,0,1,379.14,55.21ZM373.21,43.9c-1.54-1.63-5.59-2.92-11.73-2.92-5.84,0-10.48,1.25-12.11,3.13a3.76,3.76,0,0,0-1,2.17h26.18A3.41,3.41,0,0,0,373.21,43.9Z" class="cls-1"/><path data-cppathid="10009" d="M414.87,59.85a16.06,16.06,0,0,1-.38-2.63c-1.5,1.54-6.55,3.13-15.19,3.13-9.31,0-14.49-2.09-14.49-6.77V53c0-5,5-7.52,18.12-7.56,3.21,0,8.77.34,11.65.63a4.21,4.21,0,0,0-.67-2.42c-1-1.34-4.05-2.47-10.48-2.47-5.89,0-8.81.71-10,1.88a2.5,2.5,0,0,0-.54,1.38h-6.39a7.25,7.25,0,0,1,.38-1.8c1.46-4,6.59-6.47,16.24-6.47,10.89,0,15.78,2.43,17,7.56a23.29,23.29,0,0,1,.37,4.84c0,.84-.08,3.89-.08,5.76a18.62,18.62,0,0,0,.71,5.56ZM402.39,49.7c-6.14,0-9,.71-10.27,1.84a2,2,0,0,0-.55,1.38,1.48,1.48,0,0,0,.34,1.08c1,1.13,3.71,1.76,8.22,1.76,8.81,0,14.45-1,14.45-5.56C411.82,50,406.85,49.7,402.39,49.7Z" class="cls-1"/><path data-cppathid="10010" d="M457.53,59.85c-.29,0-.46-1.38-.46-11.19,0-4.55-3.09-6.89-9.9-6.89-5.8,0-11.1,2.71-11.1,6.93V59.85h-6.43v-23h6.22v5.3c2.09-4.47,8.18-6,14.07-6,9.94,0,13.61,4.88,13.61,11.35,0,11.65.12,11.86.33,12.32Z" class="cls-1"/><path data-cppathid="10011" d="M473.38,33.75V27.16h6.72v6.59Zm.67,26.1c-.37-.09-.54-1.13-.54-3.47V36.89H480V56.34c0,2.59,0,3.17.59,3.51Z" class="cls-1"/><path data-cppathid="10012" d="M518.43,59.85c-.3,0-.46-1.38-.46-11.19,0-4.55-3.09-6.89-9.9-6.89-5.8,0-11.1,2.71-11.1,6.93V59.85h-6.43v-23h6.22v5.3c2.09-4.47,8.18-6,14.07-6,9.93,0,13.61,4.88,13.61,11.35,0,11.65.12,11.86.33,12.32Z" class="cls-1"/><path data-cppathid="10013" d="M560,38c1.83-1.54,6.93-1.83,9.22-1.46V41c-2.54,0-5.42.17-6.18.62a5.41,5.41,0,0,1,1.72,2.84,7.38,7.38,0,0,1-.13,2.68c-.92,3.84-5.05,6.38-15.57,6.38a37.64,37.64,0,0,1-10.15-1.29,1.29,1.29,0,0,0-1.16,1.29c0,1,.87,1.59,13.06,1.59,13.53,0,17.58,1.46,17.58,5.89,0,5-6.43,7.39-19.79,7.39-14.24,0-18.45-2.76-18.45-6,0-2.54,2.92-3.8,5.38-4.17-2-.75-3.38-2-3.38-3.88A3.8,3.8,0,0,1,536,50.79a6.57,6.57,0,0,1-4.47-5.47,6.78,6.78,0,0,1,0-2c.71-4,5.76-7.38,16.2-7.38C553.32,35.93,557.49,36.8,560,38Zm1.71,23.42c0-1.54-1.46-1.58-11.27-1.83-4-.09-9.48,0-11.94-.13-1.21.17-2.13.71-2.13,1.76,0,1.25,2,2.46,11.81,2.46C559.37,63.69,561.63,62.77,561.67,61.43Zm-23.84-17a4.7,4.7,0,0,0,0,1.05c.25,2.38,3.67,3.67,10.23,3.67,7.3,0,10.06-1.38,10.39-3.72a7,7,0,0,0,0-1.25c-.42-2.09-3.3-3.46-10.23-3.46C541.5,40.73,538.21,42,537.83,44.44Z" class="cls-1"/><path data-cppathid="10014" d="M614.68,60.35c-9.85,0-15.91-1-19.54-3.43A10.62,10.62,0,0,1,590.38,49h7.47a4.69,4.69,0,0,0,1.88,3.3c2,1.38,5.89,2.09,14.2,2.09,10.81,0,13.65-1.63,13.65-4.17s-2.13-3.39-11.52-4c-1.76-.17-6.18-.42-7.69-.55-13.15-.92-17.28-3.8-17.28-9.27,0-5.13,6.18-9.68,21-9.68,11.32,0,17.12,3,19.83,6.68a11,11,0,0,1,1.8,4h-7.6a4.87,4.87,0,0,0-.88-1.88c-1.38-1.8-4.59-2.92-13.73-2.92-10.48,0-13.45,1.21-13.45,3.71,0,2.26,2.43,2.88,13.07,3.68,2,.12,7,.54,8.6.67,11.19.87,15,3.92,15,9.22C634.76,56.72,628.37,60.35,614.68,60.35Z" class="cls-1"/><path data-cppathid="10015" d="M672.66,46.07c-.8-3-4.72-4.59-12.19-4.59-5.93,0-10.23,1.25-12.32,3.67A5.07,5.07,0,0,0,647,48.41a5.21,5.21,0,0,0,1.17,3.3c1.88,2.33,6.51,3.46,12.32,3.46s9-.83,10.64-2.17a5.94,5.94,0,0,0,1.47-1.84h6.51a9.36,9.36,0,0,1-1.92,4.09c-2.72,3.09-7.93,5.1-16.74,5.1-9.15,0-15.28-2.26-18-5.89a10,10,0,0,1-1.92-6.18,9.51,9.51,0,0,1,2-6c3-3.8,9.23-6.18,18-6.18,9,0,14.48,2.26,17,6a10,10,0,0,1,1.5,3.92Z" class="cls-1"/><path data-cppathid="10016" d="M720.62,59.85H714.1c-.33-.5-.41-1.71-.41-11.23,0-4.51-3-6.85-9.94-6.85-5.84,0-11.06,2.67-11.06,7.1v11h-6.43V26.7h6.22V42.23c2-4.18,7.18-6,14.07-6,9.14,0,13.61,4.13,13.61,11.06C720.16,58.93,720.24,59.72,720.62,59.85Z" class="cls-1"/><path data-cppathid="10017" d="M764.19,55.21c-2.54,2.63-7.89,5.18-17.45,5.18-8.76,0-15.15-1.92-18-6.26A10.71,10.71,0,0,1,727,48.07a9.78,9.78,0,0,1,1.8-5.63c3-4,9.52-6.35,17.91-6.35,10.31,0,17.24,3.59,18.87,10a22.28,22.28,0,0,1,.58,4.38H733.43a4,4,0,0,0,1.87,2.38c2,1.72,5.89,2.8,11.82,2.8a25.94,25.94,0,0,0,9.48-1.46,6.77,6.77,0,0,0,2-1.5h7.1A7.15,7.15,0,0,1,764.19,55.21ZM758.27,43.9c-1.55-1.63-5.6-2.92-11.74-2.92-5.84,0-10.47,1.25-12.1,3.13a3.64,3.64,0,0,0-1,2.17H759.6A3.43,3.43,0,0,0,758.27,43.9Z" class="cls-1"/><path data-cppathid="10018" d="M801.88,40.6V27h6.35V57.09a22.81,22.81,0,0,0,.25,2.76h-6.26l-.17-4.26c-2,3.09-7.93,4.72-14,4.72-8.43,0-13.86-2.09-16.4-5.81a10.45,10.45,0,0,1-1.92-6.09,10.89,10.89,0,0,1,1.88-6.31c2.5-3.79,7.68-6,15.69-6C794,36.13,799.55,37.51,801.88,40.6Zm-24.46,4.22a5.39,5.39,0,0,0-1.25,3.55,5.13,5.13,0,0,0,1.25,3.5c2,2.26,6.09,3.34,12.11,3.34s10-1.17,11.6-3.67a5.39,5.39,0,0,0,.88-3.17,5.14,5.14,0,0,0-1.3-3.59c-2-2.18-5.92-3.3-11.73-3.3S779.17,42.65,777.42,44.82Z" class="cls-1"/><path data-cppathid="10019" d="M851.43,59.85h-6.26L845,55.71c-3,3.89-8.77,4.72-14.19,4.72-8.39,0-13.49-2.5-13.49-9.81,0-13.23-.16-13.4-.41-13.73h6.63c.21,0,.25,5.63.25,11.56,0,5,2.47,6.55,9.61,6.55,6.84,0,11.39-2.83,11.39-6.68V36.89h6.52V55.21C851.31,58.47,851.43,59.72,851.43,59.85Z" class="cls-1"/><path data-cppathid="10020" d="M861.94,59.85c-.25-.09-.41-.92-.41-2.34V30.08a16.38,16.38,0,0,0-.21-3.26h6.43a20.9,20.9,0,0,1,.16,3.14V57.18c0,1.21.09,2.5.5,2.67Z" class="cls-1"/><path data-cppathid="10021" d="M912.75,55.21c-2.55,2.63-7.89,5.18-17.45,5.18-8.77,0-15.16-1.92-18-6.26a10.69,10.69,0,0,1-1.75-6.06,9.85,9.85,0,0,1,1.79-5.63c3-4,9.52-6.35,17.91-6.35,10.31,0,17.24,3.59,18.87,10a22.3,22.3,0,0,1,.59,4.38H882a4.09,4.09,0,0,0,1.88,2.38c2,1.72,5.88,2.8,11.81,2.8a25.9,25.9,0,0,0,9.48-1.46,6.64,6.64,0,0,0,2-1.5h7.1A7.11,7.11,0,0,1,912.75,55.21ZM906.82,43.9c-1.55-1.63-5.6-2.92-11.73-2.92-5.85,0-10.48,1.25-12.11,3.13a3.64,3.64,0,0,0-1,2.17h26.17A3.43,3.43,0,0,0,906.82,43.9Z" class="cls-1"/></svg>