<?xml version="1.0" encoding="UTF-8"?>
<svg xmlns="http://www.w3.org/2000/svg" onmouseup="{ if(window.parent.document.onmouseup) window.parent.document.onmouseup(arguments[0]);}" viewBox="0 0 852.42 96.69" data-name="Capa 1" id="Capa_1"><defs><style>.cls-1{fill:#fff;}</style></defs><title/><path data-cppathid="10000" d="M56,40.52V17L41.23,40.52H34.34L19.94,17V40.52h-6.6V7.91h8.52L38,34,54.17,7.91h8.44V40.52Z" class="cls-1"/><path data-cppathid="10001" d="M108.85,34.42C106,38.51,99.92,41,90.48,41c-8.89,0-15.19-2.51-18.16-6.52a10.18,10.18,0,0,1-1.83-5.59,8.81,8.81,0,0,1,1.75-5.38c3-4.1,9.06-6.73,18.24-6.73,9.52,0,15.37,2.93,18.21,6.6a9.17,9.17,0,0,1,.16,11Zm-6.26-8.81c-2.09-2-6.26-3.46-12.11-3.46s-9.77,1.33-12.15,3.5A4.9,4.9,0,0,0,77,29a4.82,4.82,0,0,0,1.34,3.3c1.92,2.13,6.3,3.59,12.1,3.59,6.14,0,10.19-1.34,12.24-3.63A5,5,0,0,0,104.05,29,4.28,4.28,0,0,0,102.59,25.61Z" class="cls-1"/><path data-cppathid="10002" d="M145.54,40.52c-.29,0-.46-1.38-.46-11.19,0-4.55-3.09-6.89-9.89-6.89-5.81,0-11.11,2.71-11.11,6.93V40.52h-6.43v-23h6.22v5.31c2.09-4.47,8.19-6,14.07-6,9.94,0,13.61,4.88,13.61,11.35,0,11.65.13,11.86.34,12.32Z" class="cls-1"/><path data-cppathid="10003" d="M161.4,14.42V7.83h6.72v6.59Zm.66,26.1c-.37-.09-.54-1.13-.54-3.47V17.55H168V37c0,2.59.05,3.17.59,3.51Z" class="cls-1"/><path data-cppathid="10004" d="M187.36,23.19v8.39c0,3.05,1.34,4.18,5,4.18a43.9,43.9,0,0,0,6-.5v4.92a34.56,34.56,0,0,1-8.06.84c-5.59,0-9.43-1.8-9.43-8.1V23.19h-7.06v-5.3h7.06c.17-1.55.17-5.89.17-5.89l6.22-.16v6.05h11.35v5.3Z" class="cls-1"/><path data-cppathid="10005" d="M241.13,34.42c-2.84,4.09-8.94,6.6-18.37,6.6-8.89,0-15.2-2.51-18.16-6.52a10.11,10.11,0,0,1-1.84-5.59,8.81,8.81,0,0,1,1.75-5.38c3-4.1,9.06-6.73,18.25-6.73,9.52,0,15.36,2.93,18.2,6.6a9.19,9.19,0,0,1,.17,11Zm-6.27-8.81c-2.08-2-6.26-3.46-12.1-3.46s-9.77,1.33-12.15,3.5a4.79,4.79,0,0,0,0,6.6c1.92,2.13,6.3,3.59,12.11,3.59,6.13,0,10.18-1.34,12.23-3.63A5,5,0,0,0,236.33,29,4.29,4.29,0,0,0,234.86,25.61Z" class="cls-1"/><path data-cppathid="10006" d="M274.73,23.73a39.41,39.41,0,0,0-7.35-.66c-5.64,0-11,3-11,9.14v8.31h-6.47v-23h6.26v5.89c1.13-3.21,5.55-5.8,11.06-6.14a34,34,0,0,1,7.48.21Z" class="cls-1"/><path data-cppathid="10007" d="M281,14.42V7.83h6.72v6.59Zm.67,26.1c-.38-.09-.54-1.13-.54-3.47V17.55h6.51V37c0,2.59,0,3.17.59,3.51Z" class="cls-1"/><path data-cppathid="10008" d="M326.07,40.52c-.3,0-.46-1.38-.46-11.19,0-4.55-3.09-6.89-9.9-6.89-5.8,0-11.1,2.71-11.1,6.93V40.52h-6.43v-23h6.22v5.31c2.09-4.47,8.18-6,14.07-6,9.93,0,13.61,4.88,13.61,11.35,0,11.65.12,11.86.33,12.32Z" class="cls-1"/><path data-cppathid="10009" d="M367.6,18.68c1.83-1.54,6.93-1.83,9.22-1.46v4.47c-2.54,0-5.42.17-6.18.62a5.41,5.41,0,0,1,1.72,2.84,7.39,7.39,0,0,1-.13,2.68c-.92,3.84-5.05,6.38-15.57,6.38a37.64,37.64,0,0,1-10.15-1.29,1.3,1.3,0,0,0-1.17,1.29c0,1,.88,1.59,13.07,1.59,13.53,0,17.58,1.46,17.58,5.89,0,5.05-6.43,7.39-19.79,7.39-14.24,0-18.45-2.76-18.45-6,0-2.54,2.92-3.8,5.38-4.17-2-.75-3.38-2-3.38-3.88a3.8,3.8,0,0,1,3.92-3.55A6.58,6.58,0,0,1,339.21,26a6.17,6.17,0,0,1,0-2c.71-4.05,5.76-7.39,16.2-7.39C361,16.59,365.13,17.47,367.6,18.68Zm1.71,23.42c0-1.54-1.46-1.58-11.27-1.83-4-.09-9.48-.05-11.94-.13-1.21.17-2.13.71-2.13,1.75,0,1.26,2,2.47,11.81,2.47C367,44.36,369.27,43.44,369.31,42.1Zm-23.84-17a4.7,4.7,0,0,0,0,1.05c.25,2.38,3.67,3.67,10.23,3.67,7.3,0,10.06-1.38,10.39-3.72a6.94,6.94,0,0,0,0-1.25c-.42-2.09-3.3-3.46-10.23-3.46C349.14,21.4,345.85,22.69,345.47,25.11Z" class="cls-1"/><path data-cppathid="10010" d="M435.38,34.42C432.55,38.51,426.45,41,417,41c-8.9,0-15.2-2.51-18.17-6.52A10.18,10.18,0,0,1,397,28.91a8.81,8.81,0,0,1,1.75-5.38c3-4.1,9.06-6.73,18.25-6.73,9.51,0,15.36,2.93,18.2,6.6a9.17,9.17,0,0,1,.16,11Zm-6.26-8.81c-2.08-2-6.26-3.46-12.1-3.46s-9.77,1.33-12.15,3.5a4.79,4.79,0,0,0,0,6.6c1.92,2.13,6.3,3.59,12.11,3.59,6.13,0,10.18-1.34,12.23-3.63A5,5,0,0,0,430.58,29,4.28,4.28,0,0,0,429.12,25.61Z" class="cls-1"/><path data-cppathid="10011" d="M454.08,23.19V40.52h-6.47V23.19h-7.22v-5.3h7.22V15.8c0-5,3.17-8.72,11.1-8.72,2,0,6.56.16,7.64.33V12.8a60.71,60.71,0,0,0-7.05-.38c-4.22,0-5.35,1.5-5.35,3.76v1.71h12.49v5.3Z" class="cls-1"/><path data-cppathid="10012" d="M535.48,32.21c-3,5.51-9.65,8.81-21.71,8.81s-19.12-3.63-22.29-8.64a15.77,15.77,0,0,1-2.26-8.23,14.38,14.38,0,0,1,1.92-7.56c3.3-5.38,10.11-9.39,22.25-9.39s18.33,3.55,21.88,9.1a12.56,12.56,0,0,1,1.67,4.59h-7.22a6.4,6.4,0,0,0-1.59-2.71c-2.21-2.42-7.14-4.63-14.78-4.63-8.1,0-14,2.38-16.24,6.55a8.71,8.71,0,0,0-.87,4,7.87,7.87,0,0,0,1.12,4.3c2.76,4.43,9.69,6.35,16,6.35,7.39,0,12.28-1.09,15.37-4.76a6.64,6.64,0,0,0,1.17-2.51h7.13A16.91,16.91,0,0,1,535.48,32.21Z" class="cls-1"/><path data-cppathid="10013" d="M545,40.52c-.25-.09-.42-.92-.42-2.34V10.75a15.61,15.61,0,0,0-.21-3.26h6.43a20.56,20.56,0,0,1,.17,3.13V37.84c0,1.22.08,2.51.5,2.68Z" class="cls-1"/><path data-cppathid="10014" d="M595.75,35.88c-2.55,2.63-7.89,5.18-17.45,5.18-8.77,0-15.16-1.92-18-6.26a10.77,10.77,0,0,1-1.75-6.06,9.78,9.78,0,0,1,1.8-5.63c3-4.05,9.51-6.35,17.9-6.35,10.32,0,17.25,3.59,18.88,10a22.28,22.28,0,0,1,.58,4.38H565a4.12,4.12,0,0,0,1.88,2.38c2,1.71,5.89,2.8,11.81,2.8a25.86,25.86,0,0,0,9.48-1.46,7,7,0,0,0,2-1.5h7.09A7.11,7.11,0,0,1,595.75,35.88Zm-5.93-11.31c-1.54-1.63-5.59-2.92-11.73-2.92-5.84,0-10.48,1.25-12.11,3.13A3.76,3.76,0,0,0,565,27h26.18A3.41,3.41,0,0,0,589.82,24.57Z" class="cls-1"/><path data-cppathid="10015" d="M631.48,40.52a16.06,16.06,0,0,1-.38-2.63c-1.5,1.54-6.55,3.13-15.19,3.13-9.31,0-14.49-2.09-14.49-6.77v-.62c0-5,5-7.52,18.12-7.56,3.21,0,8.76.34,11.65.63a4.21,4.21,0,0,0-.67-2.42c-1-1.34-4-2.47-10.48-2.47-5.89,0-8.81.71-10,1.88a2.5,2.5,0,0,0-.54,1.38h-6.39a7.25,7.25,0,0,1,.38-1.8c1.46-4,6.59-6.47,16.24-6.47,10.89,0,15.78,2.42,17,7.56a23.23,23.23,0,0,1,.37,4.84c0,.84-.08,3.88-.08,5.76a18.3,18.3,0,0,0,.71,5.56ZM619,30.37c-6.14,0-9,.71-10.28,1.84a2,2,0,0,0-.54,1.38,1.44,1.44,0,0,0,.34,1.08c1,1.13,3.71,1.75,8.22,1.75,8.81,0,14.45-1,14.45-5.55C628.43,30.62,623.46,30.37,619,30.37Z" class="cls-1"/><path data-cppathid="10016" d="M674.14,40.52c-.3,0-.46-1.38-.46-11.19,0-4.55-3.09-6.89-9.9-6.89-5.8,0-11.1,2.71-11.1,6.93V40.52h-6.43v-23h6.22v5.31c2.09-4.47,8.18-6,14.07-6,9.93,0,13.61,4.88,13.61,11.35,0,11.65.12,11.86.33,12.32Z" class="cls-1"/><path data-cppathid="10017" d="M690,14.42V7.83h6.72v6.59Zm.67,26.1c-.38-.09-.54-1.13-.54-3.47V17.55h6.51V37c0,2.59,0,3.17.58,3.51Z" class="cls-1"/><path data-cppathid="10018" d="M735,40.52c-.3,0-.46-1.38-.46-11.19,0-4.55-3.09-6.89-9.9-6.89-5.8,0-11.1,2.71-11.1,6.93V40.52h-6.43v-23h6.22v5.31c2.09-4.47,8.18-6,14.07-6,9.93,0,13.61,4.88,13.61,11.35,0,11.65.12,11.86.33,12.32Z" class="cls-1"/><path data-cppathid="10019" d="M776.57,18.68c1.83-1.54,6.93-1.83,9.22-1.46v4.47c-2.54,0-5.42.17-6.18.62a5.47,5.47,0,0,1,1.72,2.84,7.39,7.39,0,0,1-.13,2.68c-.92,3.84-5.05,6.38-15.57,6.38a37.64,37.64,0,0,1-10.15-1.29,1.3,1.3,0,0,0-1.17,1.29c0,1,.88,1.59,13.07,1.59,13.53,0,17.58,1.46,17.58,5.89,0,5.05-6.43,7.39-19.79,7.39-14.24,0-18.45-2.76-18.45-6,0-2.54,2.92-3.8,5.38-4.17-2-.75-3.38-2-3.38-3.88a3.8,3.8,0,0,1,3.92-3.55A6.56,6.56,0,0,1,748.18,26a6.17,6.17,0,0,1,0-2c.71-4.05,5.76-7.39,16.2-7.39C769.93,16.59,774.1,17.47,776.57,18.68Zm1.71,23.42c0-1.54-1.46-1.58-11.27-1.83-4-.09-9.48-.05-11.94-.13-1.21.17-2.13.71-2.13,1.75,0,1.26,2,2.47,11.81,2.47C776,44.36,778.24,43.44,778.28,42.1Zm-23.84-17a4.7,4.7,0,0,0,0,1.05c.25,2.38,3.67,3.67,10.23,3.67,7.3,0,10.06-1.38,10.39-3.72a6.94,6.94,0,0,0,0-1.25c-.42-2.09-3.3-3.46-10.23-3.46C758.11,21.4,754.82,22.69,754.44,25.11Z" class="cls-1"/><path data-cppathid="10020" d="M39.9,90.6A16.06,16.06,0,0,1,39.52,88C38,89.52,33,91.11,24.32,91.11,15,91.11,9.84,89,9.84,84.34v-.62c0-5,5-7.52,18.12-7.56,3.21,0,8.76.33,11.64.63a4.19,4.19,0,0,0-.66-2.42c-1-1.34-4-2.47-10.48-2.47-5.89,0-8.81.71-10,1.88a2.5,2.5,0,0,0-.54,1.38H11.55a7.16,7.16,0,0,1,.38-1.8c1.46-4,6.59-6.47,16.23-6.47,10.9,0,15.79,2.42,17,7.56a23.93,23.93,0,0,1,.37,4.84c0,.84-.08,3.88-.08,5.76a18.17,18.17,0,0,0,.71,5.55ZM27.41,80.46c-6.13,0-9,.71-10.27,1.84a2,2,0,0,0-.54,1.37,1.45,1.45,0,0,0,.34,1.09c1,1.13,3.71,1.75,8.22,1.75,8.81,0,14.44-1,14.44-5.55C36.85,80.71,31.88,80.46,27.41,80.46Z" class="cls-1"/><path data-cppathid="10021" d="M82.55,90.6c-.29,0-.45-1.37-.45-11.18,0-4.55-3.09-6.89-9.9-6.89-5.8,0-11.1,2.71-11.1,6.93V90.6H54.67v-23h6.22V73c2.09-4.47,8.18-6,14.07-6,9.93,0,13.61,4.89,13.61,11.36,0,11.65.12,11.86.33,12.31Z" class="cls-1"/><path data-cppathid="10022" d="M127.47,71.36V57.71h6.34V87.85a22.55,22.55,0,0,0,.25,2.75H127.8l-.17-4.25c-2,3.09-7.93,4.71-14,4.71-8.44,0-13.86-2.08-16.41-5.8a10.48,10.48,0,0,1-1.92-6.09,10.94,10.94,0,0,1,1.88-6.31c2.5-3.8,7.68-6,15.7-6C119.62,66.89,125.13,68.27,127.47,71.36ZM103,75.58a5.43,5.43,0,0,0-1.25,3.54A5.19,5.19,0,0,0,103,82.63c2,2.26,6.1,3.34,12.11,3.34s10-1.17,11.61-3.67a5.49,5.49,0,0,0,.87-3.18,5.16,5.16,0,0,0-1.29-3.59c-2-2.17-5.93-3.29-11.73-3.29S104.76,73.4,103,75.58Z" class="cls-1"/><path data-cppathid="10023" d="M184.61,91.11c-9.85,0-15.91-1-19.54-3.43a10.65,10.65,0,0,1-4.76-7.89h7.47a4.74,4.74,0,0,0,1.88,3.3c2,1.38,5.89,2.09,14.2,2.09,10.81,0,13.65-1.63,13.65-4.18s-2.13-3.38-11.52-4c-1.76-.16-6.18-.41-7.69-.54-13.15-.92-17.28-3.8-17.28-9.27,0-5.13,6.18-9.68,21-9.68,11.32,0,17.12,3,19.83,6.68a10.8,10.8,0,0,1,1.8,4h-7.6a4.87,4.87,0,0,0-.88-1.88c-1.38-1.8-4.59-2.93-13.73-2.93C171,63.38,168,64.6,168,67.1c0,2.26,2.42,2.88,13.06,3.67,2,.13,7,.55,8.6.67,11.19.88,15,3.93,15,9.23C204.69,87.47,198.3,91.11,184.61,91.11Z" class="cls-1"/><path data-cppathid="10024" d="M240,90.6a16.06,16.06,0,0,1-.38-2.63c-1.5,1.55-6.55,3.14-15.19,3.14-9.31,0-14.49-2.09-14.49-6.77v-.62c0-5,5-7.52,18.12-7.56,3.21,0,8.77.33,11.65.63a4.21,4.21,0,0,0-.67-2.42c-1-1.34-4-2.47-10.48-2.47-5.89,0-8.81.71-10,1.88a2.5,2.5,0,0,0-.54,1.38h-6.39a7.16,7.16,0,0,1,.38-1.8c1.46-4,6.59-6.47,16.24-6.47,10.89,0,15.78,2.42,17,7.56a23.87,23.87,0,0,1,.38,4.84c0,.84-.09,3.88-.09,5.76a18.49,18.49,0,0,0,.71,5.55ZM227.52,80.46c-6.14,0-9,.71-10.27,1.84a2,2,0,0,0-.55,1.37,1.49,1.49,0,0,0,.34,1.09c1,1.13,3.71,1.75,8.22,1.75,8.81,0,14.45-1,14.45-5.55C237,80.71,232,80.46,227.52,80.46Z" class="cls-1"/><path data-cppathid="10025" d="M282.66,90.6c-.29,0-.46-1.37-.46-11.18,0-4.55-3.09-6.89-9.9-6.89-5.8,0-11.1,2.71-11.1,6.93V90.6h-6.43v-23H261V73c2.09-4.47,8.18-6,14.07-6,9.94,0,13.61,4.89,13.61,11.36,0,11.65.12,11.86.33,12.31Z" class="cls-1"/><path data-cppathid="10026" d="M298.51,64.51V57.92h6.73v6.59Zm.67,26.09c-.37-.08-.54-1.12-.54-3.46V67.64h6.51V87.1c0,2.59,0,3.17.59,3.5Z" class="cls-1"/><path data-cppathid="10027" d="M324.48,73.28v8.39c0,3,1.33,4.18,5,4.18a43.83,43.83,0,0,0,6.05-.51v4.93a34.56,34.56,0,0,1-8.06.84c-5.59,0-9.43-1.8-9.43-8.1V73.28H311V68H318c.16-1.55.16-5.89.16-5.89l6.22-.17V68h11.36v5.3Z" class="cls-1"/><path data-cppathid="10028" d="M343,64.51V57.92h6.72v6.59Zm.67,26.09c-.38-.08-.55-1.12-.55-3.46V67.64h6.52V87.1c0,2.59,0,3.17.58,3.5Z" class="cls-1"/><path data-cppathid="10029" d="M357.66,90.6V85.76l21-12.52h-20.5V68h31.35v4.55L368,85.39h22.71V90.6Z" class="cls-1"/><path data-cppathid="10030" d="M397.94,64.51V57.92h6.72v6.59Zm.67,26.09c-.38-.08-.55-1.12-.55-3.46V67.64h6.52V87.1c0,2.59,0,3.17.58,3.5Z" class="cls-1"/><path data-cppathid="10031" d="M443,90.6c-.29,0-.46-1.37-.46-11.18,0-4.55-3.09-6.89-9.89-6.89-5.81,0-11.11,2.71-11.11,6.93V90.6h-6.43v-23h6.22V73c2.09-4.47,8.19-6,14.07-6,9.94,0,13.61,4.89,13.61,11.36,0,11.65.13,11.86.34,12.31Z" class="cls-1"/><path data-cppathid="10032" d="M484.51,68.77c1.84-1.54,6.93-1.84,9.23-1.46v4.47c-2.55,0-5.43.16-6.18.62a5.4,5.4,0,0,1,1.71,2.84,7.32,7.32,0,0,1-.12,2.67c-.92,3.84-5.06,6.39-15.58,6.39A37.55,37.55,0,0,1,463.43,83a1.29,1.29,0,0,0-1.17,1.29c0,1,.88,1.59,13.07,1.59,13.52,0,17.57,1.46,17.57,5.88,0,5.06-6.43,7.39-19.79,7.39-14.23,0-18.45-2.75-18.45-6,0-2.55,2.92-3.8,5.39-4.17-2-.75-3.38-2-3.38-3.89a3.8,3.8,0,0,1,3.92-3.54,6.59,6.59,0,0,1-4.47-5.47,6.77,6.77,0,0,1,0-2c.71-4,5.77-7.39,16.2-7.39C477.87,66.68,482.05,67.56,484.51,68.77Zm1.71,23.42c0-1.54-1.46-1.59-11.27-1.84-4-.08-9.48,0-11.94-.12-1.21.17-2.13.71-2.13,1.75,0,1.26,2,2.47,11.82,2.47C483.93,94.45,486.18,93.53,486.22,92.19Zm-23.83-17a4.14,4.14,0,0,0-.05,1c.25,2.38,3.68,3.68,10.23,3.68,7.31,0,10.06-1.38,10.4-3.72a6.94,6.94,0,0,0,0-1.25c-.42-2.09-3.3-3.47-10.23-3.47C466.06,71.48,462.76,72.78,462.39,75.2Z" class="cls-1"/><path data-cppathid="10033" d="M519.11,90.6H511.8L533.51,58h7.68L562.4,90.6h-7.55L550,83.34H524.08Zm19.95-24.29-1.92-3.22-2,3.22-7.64,11.14h19Z" class="cls-1"/><path data-cppathid="10034" d="M596.33,76.83c-.79-3-4.71-4.59-12.19-4.59-5.92,0-10.22,1.25-12.31,3.67a5,5,0,0,0-1.13,3.26,5.17,5.17,0,0,0,1.17,3.29c1.88,2.34,6.51,3.47,12.32,3.47s9-.84,10.64-2.17a5.76,5.76,0,0,0,1.46-1.84h6.52A9.43,9.43,0,0,1,600.88,86c-2.71,3.09-7.93,5.1-16.74,5.1-9.14,0-15.28-2.26-18-5.89A10,10,0,0,1,564.19,79a9.51,9.51,0,0,1,2-6c3-3.8,9.23-6.18,18-6.18,9,0,14.49,2.26,17,6a10,10,0,0,1,1.5,3.93Z" class="cls-1"/><path data-cppathid="10035" d="M618.75,73.28v8.39c0,3,1.33,4.18,5,4.18a43.84,43.84,0,0,0,6.06-.51v4.93a34.56,34.56,0,0,1-8.06.84c-5.59,0-9.44-1.8-9.44-8.1V73.28h-7V68h7c.17-1.55.17-5.89.17-5.89l6.22-.17V68H630v5.3Z" class="cls-1"/><path data-cppathid="10036" d="M637.28,64.51V57.92H644v6.59Zm.66,26.09c-.37-.08-.54-1.12-.54-3.46V67.64h6.51V87.1c0,2.59.05,3.17.59,3.5Z" class="cls-1"/><path data-cppathid="10037" d="M672.68,90.6H665l-16.41-23h7l13.24,17.91,13.19-17.91h6.8Z" class="cls-1"/><path data-cppathid="10038" d="M693.25,64.51V57.92H700v6.59Zm.67,26.09c-.38-.08-.55-1.12-.55-3.46V67.64h6.52V87.1c0,2.59,0,3.17.58,3.5Z" class="cls-1"/><path data-cppathid="10039" d="M719.21,73.28v8.39c0,3,1.34,4.18,5,4.18a43.69,43.69,0,0,0,6.05-.51v4.93a34.46,34.46,0,0,1-8.05.84c-5.6,0-9.44-1.8-9.44-8.1V73.28h-7V68h7c.17-1.55.17-5.89.17-5.89l6.22-.17V68h11.35v5.3Z" class="cls-1"/><path data-cppathid="10040" d="M737.74,64.51V57.92h6.73v6.59Zm.67,26.09c-.37-.08-.54-1.12-.54-3.46V67.64h6.51V87.1c0,2.59,0,3.17.59,3.5Z" class="cls-1"/><path data-cppathid="10041" d="M789.51,86c-2.55,2.63-7.89,5.18-17.45,5.18-8.77,0-15.16-1.92-18-6.26a10.79,10.79,0,0,1-1.75-6.06,9.85,9.85,0,0,1,1.79-5.63c3-4,9.52-6.35,17.91-6.35,10.32,0,17.25,3.59,18.87,10a21.57,21.57,0,0,1,.59,4.38H758.74a4.12,4.12,0,0,0,1.88,2.38c2,1.71,5.88,2.8,11.81,2.8a25.86,25.86,0,0,0,9.48-1.46,6.83,6.83,0,0,0,2-1.51H791A7.06,7.06,0,0,1,789.51,86Zm-5.93-11.31C782,73,778,71.73,771.85,71.73c-5.85,0-10.48,1.26-12.11,3.14a3.7,3.7,0,0,0-1,2.17h26.18A3.47,3.47,0,0,0,783.58,74.66Z" class="cls-1"/><path data-cppathid="10042" d="M813.13,91.11c-12.32,0-16.78-1.84-18.16-6.43a5.45,5.45,0,0,1-.29-1.55H801a2,2,0,0,0,.46,1.25c1,1.13,4,1.76,11.73,1.76,9.73,0,11.11-1.09,11.11-2.51,0-1.58-1.26-1.92-9.69-2.34-1.63-.08-4.55-.29-6.51-.41-9.23-.55-12.82-2.67-12.82-6.85,0-4.59,5.35-7.18,16-7.18s15.57,1.59,17.33,5.89a6.68,6.68,0,0,1,.37,1.83h-6.3a2.5,2.5,0,0,0-.38-.87c-1-1.09-3.84-1.8-10.6-1.8-9.18,0-10.35.88-10.35,2.17s1,1.67,9,2.09c2,.13,5,.29,7,.38,9.73.37,13.07,2.5,13.07,7C830.37,88.48,825.7,91.11,813.13,91.11Z" class="cls-1"/></svg>