<?xml version="1.0" encoding="UTF-8"?>
<svg xmlns="http://www.w3.org/2000/svg" onmouseup="{ if(window.parent.document.onmouseup) window.parent.document.onmouseup(arguments[0]);}" viewBox="0 0 801.14 105.61" data-name="Capa 1" id="Capa_1"><defs><style>.cls-1{fill:#fff;}</style></defs><title/><path data-cppathid="10000" d="M27.47,47.43c-9.85,0-15.91-1-19.54-3.42a10.65,10.65,0,0,1-4.76-7.89h7.48a4.73,4.73,0,0,0,1.87,3.3c2,1.38,5.89,2.09,14.2,2.09,10.81,0,13.65-1.63,13.65-4.18s-2.13-3.38-11.52-4c-1.76-.17-6.18-.42-7.68-.54C8,31.82,3.88,28.94,3.88,23.47c0-5.13,6.18-9.69,21-9.69,11.32,0,17.12,3,19.83,6.68a10.94,10.94,0,0,1,1.8,4.05H39a4.82,4.82,0,0,0-.88-1.87c-1.37-1.8-4.59-2.93-13.73-2.93-10.48,0-13.44,1.21-13.44,3.72,0,2.25,2.42,2.88,13.06,3.67,2,.13,7,.55,8.6.67,11.19.88,15,3.92,15,9.23C47.55,43.8,41.16,47.43,27.47,47.43Z" class="cls-1"/><path data-cppathid="10001" d="M82.86,46.93a16.06,16.06,0,0,1-.38-2.63c-1.5,1.55-6.55,3.13-15.19,3.13-9.31,0-14.49-2.08-14.49-6.76V40c0-5,5-7.51,18.12-7.55,3.22,0,8.77.33,11.65.62a4.21,4.21,0,0,0-.67-2.42c-1-1.33-4.05-2.46-10.48-2.46-5.89,0-8.81.71-10,1.88a2.47,2.47,0,0,0-.54,1.38H54.51a7.16,7.16,0,0,1,.38-1.8c1.46-4,6.6-6.47,16.24-6.47,10.9,0,15.78,2.42,17,7.56a23.81,23.81,0,0,1,.38,4.84c0,.83-.09,3.88-.09,5.76a18.49,18.49,0,0,0,.71,5.55ZM70.38,36.79c-6.14,0-9,.71-10.27,1.84A1.94,1.94,0,0,0,59.57,40a1.48,1.48,0,0,0,.33,1.09c1,1.13,3.71,1.75,8.22,1.75,8.81,0,14.45-1,14.45-5.55C79.81,37,74.85,36.79,70.38,36.79Z" class="cls-1"/><path data-cppathid="10002" d="M125.52,46.93c-.29,0-.46-1.38-.46-11.19,0-4.55-3.09-6.88-9.9-6.88-5.8,0-11.1,2.71-11.1,6.93V46.93H97.63V24h6.22v5.3c2.09-4.46,8.18-6,14.07-6,9.94,0,13.61,4.89,13.61,11.36,0,11.64.13,11.85.33,12.31Z" class="cls-1"/><path data-cppathid="10003" d="M141.37,20.84v-6.6h6.73v6.6ZM142,46.93c-.37-.08-.54-1.12-.54-3.46V24H148V43.43c0,2.58,0,3.17.59,3.5Z" class="cls-1"/><path data-cppathid="10004" d="M167.34,29.61V38c0,3,1.33,4.17,5,4.17a43.9,43.9,0,0,0,6.05-.5V46.6a34.67,34.67,0,0,1-8.06.83c-5.59,0-9.43-1.79-9.43-8.1V29.61h-7.06v-5.3h7.06c.16-1.55.16-5.89.16-5.89l6.23-.17v6.06h11.35v5.3Z" class="cls-1"/><path data-cppathid="10005" d="M213,46.93a16.34,16.34,0,0,1-.37-2.63c-1.51,1.55-6.56,3.13-15.2,3.13-9.31,0-14.49-2.08-14.49-6.76V40c0-5,5-7.51,18.12-7.55,3.22,0,8.77.33,11.65.62a4.13,4.13,0,0,0-.67-2.42c-1-1.33-4.05-2.46-10.48-2.46-5.88,0-8.8.71-10,1.88a2.49,2.49,0,0,0-.55,1.38h-6.38a7.59,7.59,0,0,1,.37-1.8c1.46-4,6.6-6.47,16.24-6.47,10.9,0,15.78,2.42,17,7.56a23.81,23.81,0,0,1,.38,4.84c0,.83-.08,3.88-.08,5.76a18.17,18.17,0,0,0,.71,5.55ZM200.48,36.79c-6.14,0-9,.71-10.27,1.84a2,2,0,0,0-.54,1.37,1.48,1.48,0,0,0,.33,1.09c1,1.13,3.72,1.75,8.23,1.75,8.81,0,14.44-1,14.44-5.55C209.92,37,205,36.79,200.48,36.79Z" class="cls-1"/><path data-cppathid="10006" d="M236.54,29.61V38c0,3,1.34,4.17,5,4.17a44.05,44.05,0,0,0,6.06-.5V46.6a34.67,34.67,0,0,1-8.06.83c-5.6,0-9.44-1.79-9.44-8.1V29.61h-7v-5.3h7c.17-1.55.17-5.89.17-5.89l6.22-.17v6.06h11.36v5.3Z" class="cls-1"/><path data-cppathid="10007" d="M255.07,20.84v-6.6h6.73v6.6Zm.67,26.09c-.37-.08-.54-1.12-.54-3.46V24h6.51V43.43c0,2.58,0,3.17.59,3.5Z" class="cls-1"/><path data-cppathid="10008" d="M307.88,40.84c-2.84,4.09-8.93,6.59-18.37,6.59-8.89,0-15.19-2.5-18.16-6.51a10.2,10.2,0,0,1-1.83-5.59,8.86,8.86,0,0,1,1.75-5.39c3-4.09,9.06-6.72,18.24-6.72,9.52,0,15.37,2.92,18.2,6.6a9.15,9.15,0,0,1,.17,11ZM301.62,32c-2.09-2.05-6.26-3.47-12.11-3.47s-9.77,1.34-12.15,3.51a4.88,4.88,0,0,0-1.29,3.3,4.82,4.82,0,0,0,1.34,3.3c1.92,2.13,6.3,3.59,12.1,3.59,6.14,0,10.19-1.34,12.23-3.63a5,5,0,0,0,1.34-3.26A4.32,4.32,0,0,0,301.62,32Z" class="cls-1"/><path data-cppathid="10009" d="M344.57,46.93c-.29,0-.46-1.38-.46-11.19,0-4.55-3.09-6.88-9.89-6.88-5.81,0-11.11,2.71-11.11,6.93V46.93h-6.43V24h6.22v5.3c2.09-4.46,8.19-6,14.07-6,9.94,0,13.61,4.89,13.61,11.36,0,11.64.13,11.85.34,12.31Z" class="cls-1"/><path data-cppathid="10010" d="M401.29,47.43c-9.85,0-15.9-1-19.53-3.42A10.59,10.59,0,0,1,377,36.12h7.47a4.71,4.71,0,0,0,1.88,3.3c2,1.38,5.88,2.09,14.19,2.09,10.82,0,13.65-1.63,13.65-4.18s-2.12-3.38-11.52-4c-1.75-.17-6.18-.42-7.68-.54-13.15-.92-17.28-3.8-17.28-9.27,0-5.13,6.17-9.69,21-9.69,11.31,0,17.11,3,19.83,6.68a10.91,10.91,0,0,1,1.79,4.05h-7.6a4.67,4.67,0,0,0-.87-1.87c-1.38-1.8-4.59-2.93-13.74-2.93-10.48,0-13.44,1.21-13.44,3.72,0,2.25,2.42,2.88,13.07,3.67,2,.13,7,.55,8.6.67,11.19.88,15,3.92,15,9.23C421.37,43.8,415,47.43,401.29,47.43Z" class="cls-1"/><path data-cppathid="10011" d="M438.48,29.61V38c0,3,1.34,4.17,5,4.17a43.77,43.77,0,0,0,6.05-.5V46.6a34.57,34.57,0,0,1-8.05.83c-5.6,0-9.44-1.79-9.44-8.1V29.61H425v-5.3H432c.17-1.55.17-5.89.17-5.89l6.22-.17v6.06h11.35v5.3Z" class="cls-1"/><path data-cppathid="10012" d="M484.11,46.93a16.06,16.06,0,0,1-.38-2.63c-1.5,1.55-6.55,3.13-15.2,3.13-9.3,0-14.48-2.08-14.48-6.76V40c0-5,5-7.51,18.12-7.55,3.21,0,8.76.33,11.65.62a4.21,4.21,0,0,0-.67-2.42c-1-1.33-4-2.46-10.48-2.46-5.89,0-8.81.71-10,1.88a2.47,2.47,0,0,0-.54,1.38h-6.39a7.16,7.16,0,0,1,.38-1.8c1.46-4,6.59-6.47,16.24-6.47,10.89,0,15.78,2.42,17,7.56a23.87,23.87,0,0,1,.37,4.84c0,.83-.08,3.88-.08,5.76a18.17,18.17,0,0,0,.71,5.55ZM471.62,36.79c-6.13,0-9,.71-10.27,1.84a2,2,0,0,0-.54,1.37,1.45,1.45,0,0,0,.34,1.09c1,1.13,3.71,1.75,8.22,1.75,8.81,0,14.45-1,14.45-5.55C481.06,37,476.09,36.79,471.62,36.79Z" class="cls-1"/><path data-cppathid="10013" d="M526.77,46.93c-.3,0-.46-1.38-.46-11.19,0-4.55-3.09-6.88-9.9-6.88-5.8,0-11.1,2.71-11.1,6.93V46.93h-6.43V24h6.22v5.3c2.09-4.46,8.18-6,14.07-6,9.93,0,13.61,4.89,13.61,11.36,0,11.64.12,11.85.33,12.31Z" class="cls-1"/><path data-cppathid="10014" d="M571.68,27.69V14H578V44.18a22.79,22.79,0,0,0,.25,2.75H572l-.17-4.26c-2,3.09-7.93,4.72-14,4.72-8.44,0-13.86-2.09-16.41-5.8a10.48,10.48,0,0,1-1.92-6.1,10.91,10.91,0,0,1,1.88-6.3c2.5-3.8,7.68-6,15.7-6C563.83,23.22,569.34,24.6,571.68,27.69ZM547.21,31.9A5.46,5.46,0,0,0,546,35.45,5.19,5.19,0,0,0,547.21,39c2,2.25,6.1,3.34,12.11,3.34s10-1.17,11.61-3.67a5.49,5.49,0,0,0,.87-3.18,5.15,5.15,0,0,0-1.29-3.59c-2-2.17-5.93-3.3-11.73-3.3S549,29.73,547.21,31.9Z" class="cls-1"/><path data-cppathid="10015" d="M615.05,46.93a16.06,16.06,0,0,1-.38-2.63c-1.5,1.55-6.56,3.13-15.2,3.13-9.31,0-14.48-2.08-14.48-6.76V40c0-5,5-7.51,18.12-7.55,3.21,0,8.76.33,11.64.62a4.19,4.19,0,0,0-.66-2.42c-1.05-1.33-4.05-2.46-10.48-2.46-5.89,0-8.81.71-10,1.88a2.4,2.4,0,0,0-.54,1.38H586.7a7.59,7.59,0,0,1,.37-1.8c1.47-4,6.6-6.47,16.24-6.47,10.9,0,15.79,2.42,17,7.56a23.87,23.87,0,0,1,.37,4.84c0,.83-.08,3.88-.08,5.76a18.17,18.17,0,0,0,.71,5.55ZM602.56,36.79c-6.13,0-9,.71-10.27,1.84a2,2,0,0,0-.54,1.37,1.48,1.48,0,0,0,.33,1.09c1,1.13,3.72,1.75,8.23,1.75,8.81,0,14.44-1,14.44-5.55C612,37,607,36.79,602.56,36.79Z" class="cls-1"/><path data-cppathid="10016" d="M654.61,30.15a38.34,38.34,0,0,0-7.34-.67c-5.64,0-11,3.05-11,9.15v8.3h-6.47V24h6.26v5.89c1.12-3.22,5.55-5.81,11.06-6.14a33.91,33.91,0,0,1,7.47.21Z" class="cls-1"/><path data-cppathid="10017" d="M689,27.69V14h6.35V44.18a22.79,22.79,0,0,0,.25,2.75h-6.27l-.16-4.26c-2,3.09-7.94,4.72-14,4.72-8.43,0-13.86-2.09-16.41-5.8a10.48,10.48,0,0,1-1.92-6.1,10.91,10.91,0,0,1,1.88-6.3c2.51-3.8,7.68-6,15.7-6C681.16,23.22,686.67,24.6,689,27.69ZM664.55,31.9a5.41,5.41,0,0,0-1.26,3.55A5.14,5.14,0,0,0,664.55,39c2,2.25,6.09,3.34,12.1,3.34s10-1.17,11.61-3.67a5.49,5.49,0,0,0,.87-3.18,5.15,5.15,0,0,0-1.29-3.59c-2-2.17-5.93-3.3-11.73-3.3S666.3,29.73,664.55,31.9Z" class="cls-1"/><path data-cppathid="10018" d="M46.3,69.47c3.55,3.09,4.84,6.59,4.84,11.1a14.3,14.3,0,0,1-4.72,11.11c-4.13,4-11,5.84-19.62,5.84-8.18,0-14.48-2-18.83-5.59A13.94,13.94,0,0,1,2.5,80.53,13.64,13.64,0,0,1,7.26,69.72c4.76-4.43,10.9-6.06,19.58-6.06S41.83,65.5,46.3,69.47Zm-5,17.82a8.51,8.51,0,0,0,2.92-6.68,8.28,8.28,0,0,0-3.05-6.84c-3.17-2.63-7.43-4-14.36-4-6.59,0-11.65,1.54-14.36,4.09a8.67,8.67,0,0,0-3,6.8,8.34,8.34,0,0,0,3.75,7.27c3.38,2.55,7.6,3.71,13.65,3.71C33.48,91.59,38,90.34,41.29,87.29Z" class="cls-1"/><path data-cppathid="10019" d="M94.38,91.89C91.46,95.39,86,97.4,79.1,97.4c-5.17,0-11.85-1.26-14.11-4.05v11.44H58.56V74.1h6.22V78c1.76-2.42,7.52-4.55,14.36-4.55,7.77,0,12.82,2.09,15.41,5.51a10.65,10.65,0,0,1,2.17,6.52A10.07,10.07,0,0,1,94.38,91.89Zm-6-10.19c-2-2-5.8-3-10.94-3s-9.39,1.21-11.27,3.47a5.18,5.18,0,0,0-1.42,3.59A4.84,4.84,0,0,0,66.12,89c1.79,2,5.84,3.21,11.35,3.21,5.31,0,9.23-1.17,11.23-3.21a5.24,5.24,0,0,0,1.38-3.64A4.94,4.94,0,0,0,88.41,81.7Z" class="cls-1"/><path data-cppathid="10020" d="M138.25,92.39c-2.55,2.63-7.89,5.17-17.45,5.17-8.77,0-15.15-1.92-18-6.26a10.68,10.68,0,0,1-1.76-6,9.84,9.84,0,0,1,1.8-5.64c3-4,9.51-6.34,17.91-6.34,10.31,0,17.24,3.59,18.87,10a22.38,22.38,0,0,1,.58,4.39H107.48A4.12,4.12,0,0,0,109.36,90c2,1.71,5.89,2.79,11.82,2.79a25.83,25.83,0,0,0,9.47-1.46,6.82,6.82,0,0,0,2-1.5h7.09A7.23,7.23,0,0,1,138.25,92.39Zm-5.93-11.32c-1.54-1.62-5.59-2.92-11.73-2.92-5.84,0-10.48,1.25-12.11,3.13a3.79,3.79,0,0,0-1,2.17h26.18A3.41,3.41,0,0,0,132.32,81.07Z" class="cls-1"/><path data-cppathid="10021" d="M171.27,80.24a38.53,38.53,0,0,0-7.35-.67c-5.64,0-11,3.05-11,9.14V97h-6.47v-23h6.26V80c1.13-3.22,5.55-5.81,11.06-6.14a34,34,0,0,1,7.48.21Z" class="cls-1"/><path data-cppathid="10022" d="M203.11,97a16.34,16.34,0,0,1-.37-2.63c-1.51,1.55-6.56,3.13-15.2,3.13-9.31,0-14.48-2.09-14.48-6.76v-.63c0-5,5-7.51,18.11-7.55,3.22,0,8.77.33,11.65.62a4.13,4.13,0,0,0-.67-2.42c-1-1.33-4.05-2.46-10.48-2.46-5.88,0-8.8.71-10,1.88a2.49,2.49,0,0,0-.55,1.37h-6.38a7.62,7.62,0,0,1,.37-1.79c1.46-4,6.6-6.47,16.24-6.47,10.9,0,15.78,2.42,17,7.55a24,24,0,0,1,.38,4.85c0,.83-.08,3.88-.08,5.76a18.27,18.27,0,0,0,.71,5.55ZM190.63,86.88c-6.14,0-9,.71-10.27,1.83a2,2,0,0,0-.54,1.38,1.49,1.49,0,0,0,.33,1.09c1,1.12,3.72,1.75,8.23,1.75,8.81,0,14.44-1,14.44-5.55C200.07,87.13,195.1,86.88,190.63,86.88Z" class="cls-1"/><path data-cppathid="10023" d="M226.69,79.7v8.39c0,3,1.34,4.17,5,4.17a43.77,43.77,0,0,0,6.05-.5v4.93a35.14,35.14,0,0,1-8.05.83c-5.6,0-9.44-1.79-9.44-8.1V79.7h-7.05V74.39h7.05c.17-1.54.17-5.88.17-5.88l6.22-.17v6H238V79.7Z" class="cls-1"/><path data-cppathid="10024" d="M245.22,70.93v-6.6h6.72v6.6ZM245.89,97c-.37-.08-.54-1.13-.54-3.46V74.06h6.51V93.51c0,2.59,0,3.18.59,3.51Z" class="cls-1"/><path data-cppathid="10025" d="M290.27,97c-.3,0-.46-1.38-.46-11.19,0-4.55-3.09-6.89-9.9-6.89-5.8,0-11.1,2.72-11.1,6.93V97h-6.43v-23h6.22v5.3c2.09-4.47,8.18-6,14.07-6,9.93,0,13.61,4.88,13.61,11.36,0,11.64.12,11.85.33,12.31Z" class="cls-1"/><path data-cppathid="10026" d="M331.8,75.19c1.83-1.55,6.93-1.84,9.22-1.46v4.46c-2.54,0-5.42.17-6.18.63a5.37,5.37,0,0,1,1.72,2.84,7.33,7.33,0,0,1-.13,2.67c-.92,3.84-5.05,6.39-15.57,6.39a37.13,37.13,0,0,1-10.15-1.3,1.3,1.3,0,0,0-1.16,1.3c0,1,.87,1.58,13.06,1.58,13.53,0,17.58,1.46,17.58,5.89,0,5-6.43,7.39-19.79,7.39-14.24,0-18.45-2.76-18.45-6,0-2.55,2.92-3.8,5.38-4.18-2-.75-3.38-2-3.38-3.88A3.8,3.8,0,0,1,307.88,88a6.56,6.56,0,0,1-4.47-5.47,6.11,6.11,0,0,1,0-2c.71-4,5.76-7.39,16.2-7.39C325.16,73.1,329.33,74,331.8,75.19Zm1.71,23.42c0-1.55-1.46-1.59-11.27-1.84-4-.08-9.48,0-11.94-.12-1.21.16-2.13.71-2.13,1.75,0,1.25,2,2.46,11.81,2.46C331.21,100.86,333.47,99.94,333.51,98.61Zm-23.84-17a4.62,4.62,0,0,0,0,1c.25,2.38,3.67,3.67,10.23,3.67,7.3,0,10.06-1.37,10.39-3.71a6.91,6.91,0,0,0,0-1.25c-.42-2.09-3.3-3.47-10.23-3.47C313.34,77.9,310.05,79.19,309.67,81.62Z" class="cls-1"/><path data-cppathid="10027" d="M403.8,83.58c-2.29,3.17-6.34,4.55-12.44,4.55h-19.7V97h-6.77V64.42H391.4c6.06,0,10.15,1.42,12.07,3.92,1.38,1.75,2.29,4.38,2.29,8A12.06,12.06,0,0,1,403.8,83.58Zm-5.59-10.73c-1-1.63-3.64-2.59-8-2.59H371.61V82h18.5c4.63,0,7-.87,8.1-2.54a6.11,6.11,0,0,0,.67-3.3A6.79,6.79,0,0,0,398.21,72.85Z" class="cls-1"/><path data-cppathid="10028" d="M438.11,80.24a38.45,38.45,0,0,0-7.35-.67c-5.63,0-11,3.05-11,9.14V97h-6.47v-23h6.26V80c1.13-3.22,5.56-5.81,11.07-6.14a33.91,33.91,0,0,1,7.47.21Z" class="cls-1"/><path data-cppathid="10029" d="M478.68,90.93c-2.84,4.09-8.93,6.59-18.37,6.59-8.89,0-15.19-2.5-18.16-6.51a10.2,10.2,0,0,1-1.83-5.59A8.86,8.86,0,0,1,442.07,80c3-4.09,9.06-6.72,18.24-6.72,9.52,0,15.37,2.92,18.21,6.59a9.19,9.19,0,0,1,.16,11Zm-6.26-8.81c-2.09-2.05-6.26-3.47-12.11-3.47s-9.77,1.34-12.14,3.51a4.79,4.79,0,0,0,0,6.6c1.92,2.12,6.3,3.59,12.1,3.59,6.14,0,10.19-1.34,12.24-3.64a5,5,0,0,0,1.33-3.25A4.28,4.28,0,0,0,472.42,82.12Z" class="cls-1"/><path data-cppathid="10030" d="M516.92,83.24c-.8-3-4.72-4.59-12.2-4.59-5.92,0-10.22,1.25-12.31,3.68a5,5,0,0,0-1.13,3.25,5.19,5.19,0,0,0,1.17,3.3c1.88,2.34,6.51,3.47,12.32,3.47s9-.84,10.64-2.18a5.83,5.83,0,0,0,1.46-1.83h6.52a9.41,9.41,0,0,1-1.92,4.09c-2.72,3.09-7.94,5.09-16.75,5.09-9.14,0-15.28-2.25-18-5.88a10,10,0,0,1-1.92-6.18,9.49,9.49,0,0,1,2-6c3-3.8,9.23-6.18,18-6.18,9,0,14.49,2.25,17,6a10,10,0,0,1,1.5,3.92Z" class="cls-1"/><path data-cppathid="10031" d="M565.13,92.39c-2.55,2.63-7.89,5.17-17.45,5.17-8.77,0-15.16-1.92-18-6.26a10.66,10.66,0,0,1-1.75-6,9.91,9.91,0,0,1,1.79-5.64c3-4,9.52-6.34,17.91-6.34,10.31,0,17.24,3.59,18.87,10a22.4,22.4,0,0,1,.59,4.39H534.36A4.12,4.12,0,0,0,536.24,90c2,1.71,5.88,2.79,11.81,2.79a25.9,25.9,0,0,0,9.48-1.46,6.77,6.77,0,0,0,2-1.5h7.1A7.23,7.23,0,0,1,565.13,92.39ZM559.2,81.07c-1.55-1.62-5.6-2.92-11.73-2.92-5.85,0-10.48,1.25-12.11,3.13a3.66,3.66,0,0,0-1,2.17h26.17A3.43,3.43,0,0,0,559.2,81.07Z" class="cls-1"/><path data-cppathid="10032" d="M602.82,77.78V64.12h6.34V94.27a22.79,22.79,0,0,0,.25,2.75h-6.26L603,92.76c-2,3.09-7.93,4.72-14,4.72-8.44,0-13.86-2.09-16.41-5.8a10.51,10.51,0,0,1-1.92-6.1,10.91,10.91,0,0,1,1.88-6.3c2.5-3.8,7.68-6,15.69-6C595,73.31,600.48,74.69,602.82,77.78ZM578.35,82a5.46,5.46,0,0,0-1.25,3.55,5.19,5.19,0,0,0,1.25,3.51c2,2.25,6.1,3.34,12.11,3.34s10-1.17,11.61-3.68a5.44,5.44,0,0,0,.87-3.17A5.13,5.13,0,0,0,601.65,82c-2-2.17-5.93-3.3-11.73-3.3S580.11,79.82,578.35,82Z" class="cls-1"/><path data-cppathid="10033" d="M652.36,97H646.1l-.17-4.13c-3,3.88-8.76,4.72-14.19,4.72-8.39,0-13.49-2.51-13.49-9.81,0-13.24-.16-13.41-.41-13.74h6.64c.2,0,.25,5.64.25,11.56,0,5,2.46,6.56,9.6,6.56,6.84,0,11.4-2.84,11.4-6.68V74.06h6.51V92.39C652.24,95.64,652.36,96.9,652.36,97Z" class="cls-1"/><path data-cppathid="10034" d="M686.8,80.24a38.53,38.53,0,0,0-7.35-.67c-5.64,0-11,3.05-11,9.14V97H662v-23h6.26V80c1.13-3.22,5.55-5.81,11.06-6.14a34,34,0,0,1,7.48.21Z" class="cls-1"/><path data-cppathid="10035" d="M726.33,92.39c-2.55,2.63-7.89,5.17-17.45,5.17-8.77,0-15.16-1.92-18-6.26a10.66,10.66,0,0,1-1.75-6,9.91,9.91,0,0,1,1.79-5.64c3-4,9.52-6.34,17.91-6.34,10.31,0,17.24,3.59,18.87,10a22.4,22.4,0,0,1,.59,4.39H695.56A4.12,4.12,0,0,0,697.44,90c2,1.71,5.88,2.79,11.81,2.79a25.9,25.9,0,0,0,9.48-1.46,6.77,6.77,0,0,0,2-1.5h7.1A7.23,7.23,0,0,1,726.33,92.39ZM720.4,81.07c-1.55-1.62-5.6-2.92-11.73-2.92-5.85,0-10.48,1.25-12.11,3.13a3.66,3.66,0,0,0-1,2.17h26.17A3.43,3.43,0,0,0,720.4,81.07Z" class="cls-1"/><path data-cppathid="10036" d="M750,97.52c-12.32,0-16.79-1.83-18.16-6.43a5.49,5.49,0,0,1-.3-1.54h6.31a2,2,0,0,0,.46,1.25c1,1.13,4,1.75,11.73,1.75,9.73,0,11.1-1.08,11.1-2.5,0-1.59-1.25-1.92-9.68-2.34-1.63-.08-4.55-.29-6.51-.42-9.23-.54-12.82-2.67-12.82-6.84,0-4.6,5.34-7.18,16-7.18s15.57,1.58,17.33,5.88a6.74,6.74,0,0,1,.37,1.84h-6.3a2.53,2.53,0,0,0-.38-.88c-1-1.08-3.84-1.79-10.6-1.79-9.19,0-10.36.87-10.36,2.17s1,1.67,9,2.09c2,.12,5,.29,7,.37,9.73.38,13.07,2.51,13.07,7.06C767.19,94.89,762.51,97.52,750,97.52Z" class="cls-1"/></svg>