<?xml version="1.0" encoding="UTF-8"?>
<svg xmlns="http://www.w3.org/2000/svg" onmouseup="{ if(window.parent.document.onmouseup) window.parent.document.onmouseup(arguments[0]);}" viewBox="0 0 970.1 96.69" data-name="Capa 1" id="Capa_1"><defs><style>.cls-1{fill:#fff;}</style></defs><title/><path data-cppathid="10000" d="M48.3,65H39.91L18.74,32.41h7.64l17.83,27.3,18.41-27.3h6.8Z" class="cls-1"/><path data-cppathid="10001" d="M103.61,60.38c-2.55,2.63-7.89,5.18-17.45,5.18-8.77,0-15.16-1.92-18-6.27a10.74,10.74,0,0,1-1.75-6,9.85,9.85,0,0,1,1.79-5.63c3-4,9.52-6.35,17.91-6.35,10.32,0,17.25,3.59,18.87,10a21.57,21.57,0,0,1,.59,4.38H72.84A4.12,4.12,0,0,0,74.72,58c2,1.71,5.88,2.8,11.81,2.8A25.9,25.9,0,0,0,96,59.34a6.83,6.83,0,0,0,2-1.51h7.1A7.06,7.06,0,0,1,103.61,60.38ZM97.68,49.07c-1.55-1.63-5.6-2.93-11.73-2.93-5.85,0-10.48,1.26-12.11,3.14a3.64,3.64,0,0,0-1,2.17H99A3.45,3.45,0,0,0,97.68,49.07Z" class="cls-1"/><path data-cppathid="10002" d="M136.62,48.23a38.45,38.45,0,0,0-7.35-.67c-5.63,0-11,3-11,9.15V65h-6.47v-23h6.27v5.89c1.12-3.21,5.55-5.8,11.06-6.14a33.91,33.91,0,0,1,7.47.21Z" class="cls-1"/><path data-cppathid="10003" d="M142.92,38.92V32.33h6.72v6.59ZM143.59,65c-.38-.08-.55-1.12-.55-3.46V42.05h6.52V61.51c0,2.59,0,3.17.58,3.5Z" class="cls-1"/><path data-cppathid="10004" d="M169.43,47.69V65h-6.56V47.69h-6.6v-5.3h6.6V40.13c0-5,2.72-8.64,9.94-8.64,2,0,7.43.25,8.26.38v5.21a36.29,36.29,0,0,0-5.51-.45c-4.84.08-6.26,1.62-6.26,3.84v1.92h22.46V61.51c0,2.59,0,3.17.59,3.5h-6.56c-.42-.08-.58-1.12-.58-3.46V47.69Z" class="cls-1"/><path data-cppathid="10005" d="M231.71,51.24c-.8-3-4.72-4.59-12.19-4.59-5.93,0-10.23,1.25-12.32,3.67a5,5,0,0,0-1.13,3.26,5.17,5.17,0,0,0,1.17,3.29c1.88,2.34,6.51,3.47,12.32,3.47s9-.84,10.64-2.17a5.76,5.76,0,0,0,1.46-1.84h6.52a9.41,9.41,0,0,1-1.92,4.09c-2.72,3.09-7.94,5.1-16.74,5.1-9.15,0-15.29-2.26-18-5.89a10,10,0,0,1-1.92-6.18,9.51,9.51,0,0,1,2-6c3-3.8,9.23-6.18,18-6.18,9,0,14.48,2.26,17,6a10,10,0,0,1,1.5,3.93Z" class="cls-1"/><path data-cppathid="10006" d="M272.82,65a16.06,16.06,0,0,1-.38-2.63c-1.5,1.55-6.55,3.14-15.19,3.14-9.31,0-14.49-2.09-14.49-6.77v-.62c0-5,5-7.52,18.12-7.56,3.21,0,8.77.33,11.65.63a4.26,4.26,0,0,0-.67-2.43c-1-1.33-4.05-2.46-10.48-2.46-5.89,0-8.81.71-10,1.88a2.5,2.5,0,0,0-.54,1.38h-6.39a7.16,7.16,0,0,1,.38-1.8c1.46-4,6.59-6.47,16.24-6.47,10.89,0,15.78,2.42,17,7.56a23.87,23.87,0,0,1,.38,4.84c0,.84-.09,3.88-.09,5.76a18.49,18.49,0,0,0,.71,5.55ZM260.34,54.87c-6.14,0-9,.71-10.27,1.84a2,2,0,0,0-.55,1.37,1.49,1.49,0,0,0,.34,1.09c1,1.13,3.71,1.75,8.22,1.75,8.81,0,14.45-1,14.45-5.55C269.77,55.12,264.8,54.87,260.34,54.87Z" class="cls-1"/><path data-cppathid="10007" d="M296.4,47.69v8.39c0,3.05,1.33,4.18,5,4.18a43.83,43.83,0,0,0,6.05-.51v4.93a34.56,34.56,0,0,1-8.06.84c-5.59,0-9.43-1.8-9.43-8.1V47.69h-7.06v-5.3h7.06c.17-1.55.17-5.89.17-5.89l6.22-.17v6.06h11.35v5.3Z" class="cls-1"/><path data-cppathid="10008" d="M314.93,38.92V32.33h6.72v6.59ZM315.6,65c-.38-.08-.55-1.12-.55-3.46V42.05h6.52V61.51c0,2.59,0,3.17.58,3.5Z" class="cls-1"/><path data-cppathid="10009" d="M367.74,58.92c-2.84,4.09-8.94,6.6-18.37,6.6-8.89,0-15.2-2.51-18.16-6.52a10.14,10.14,0,0,1-1.84-5.59A8.86,8.86,0,0,1,331.12,48c3-4.09,9.06-6.72,18.25-6.72,9.52,0,15.36,2.92,18.2,6.6a9.19,9.19,0,0,1,.17,11Zm-6.26-8.81c-2.09-2-6.27-3.46-12.11-3.46s-9.77,1.33-12.15,3.5a4.81,4.81,0,0,0,0,6.6c1.92,2.13,6.31,3.59,12.11,3.59,6.13,0,10.18-1.34,12.23-3.63a5,5,0,0,0,1.34-3.26A4.32,4.32,0,0,0,361.48,50.11Z" class="cls-1"/><path data-cppathid="10010" d="M404.43,65c-.3,0-.46-1.37-.46-11.18,0-4.55-3.09-6.89-9.9-6.89-5.8,0-11.1,2.71-11.1,6.93V65h-6.43v-23h6.22v5.31c2.09-4.47,8.18-6,14.07-6,9.93,0,13.61,4.89,13.61,11.36,0,11.65.12,11.86.33,12.31Z" class="cls-1"/><path data-cppathid="10011" d="M441,65h-7.31l21.71-32.6h7.68L484.32,65h-7.56l-4.88-7.26H446Zm20-24.29-1.92-3.22-2,3.22-7.64,11.14h19Z" class="cls-1"/><path data-cppathid="10012" d="M518.25,51.24c-.79-3-4.72-4.59-12.19-4.59-5.93,0-10.23,1.25-12.31,3.67a5,5,0,0,0-1.13,3.26,5.17,5.17,0,0,0,1.17,3.29c1.88,2.34,6.51,3.47,12.31,3.47s9-.84,10.65-2.17a5.9,5.9,0,0,0,1.46-1.84h6.51a9.3,9.3,0,0,1-1.92,4.09c-2.71,3.09-7.93,5.1-16.74,5.1-9.14,0-15.28-2.26-18-5.89a10,10,0,0,1-1.92-6.18,9.51,9.51,0,0,1,2-6c3-3.8,9.22-6.18,18-6.18,9,0,14.49,2.26,17,6a10.06,10.06,0,0,1,1.51,3.93Z" class="cls-1"/><path data-cppathid="10013" d="M540.66,47.69v8.39c0,3.05,1.34,4.18,5,4.18a43.69,43.69,0,0,0,6-.51v4.93a34.46,34.46,0,0,1-8,.84c-5.6,0-9.44-1.8-9.44-8.1V47.69h-7.05v-5.3h7.05c.17-1.55.17-5.89.17-5.89l6.22-.17v6.06h11.35v5.3Z" class="cls-1"/><path data-cppathid="10014" d="M559.19,38.92V32.33h6.72v6.59ZM559.86,65c-.38-.08-.54-1.12-.54-3.46V42.05h6.51V61.51c0,2.59,0,3.17.59,3.5Z" class="cls-1"/><path data-cppathid="10015" d="M594.59,65H587l-16.4-23h7L590.79,60,604,42.05h6.81Z" class="cls-1"/><path data-cppathid="10016" d="M615.17,38.92V32.33h6.72v6.59ZM615.83,65c-.37-.08-.54-1.12-.54-3.46V42.05h6.52V61.51c0,2.59,0,3.17.58,3.5Z" class="cls-1"/><path data-cppathid="10017" d="M641.13,47.69v8.39c0,3.05,1.34,4.18,5,4.18a43.83,43.83,0,0,0,6-.51v4.93a34.56,34.56,0,0,1-8.06.84c-5.59,0-9.43-1.8-9.43-8.1V47.69H627.6v-5.3h7.06c.17-1.55.17-5.89.17-5.89l6.22-.17v6.06H652.4v5.3Z" class="cls-1"/><path data-cppathid="10018" d="M659.66,38.92V32.33h6.72v6.59ZM660.33,65c-.38-.08-.54-1.12-.54-3.46V42.05h6.51V61.51c0,2.59,0,3.17.58,3.5Z" class="cls-1"/><path data-cppathid="10019" d="M711.42,60.38c-2.54,2.63-7.89,5.18-17.45,5.18-8.76,0-15.15-1.92-18-6.27a10.66,10.66,0,0,1-1.75-6A9.85,9.85,0,0,1,676,47.61c3-4,9.52-6.35,17.91-6.35,10.31,0,17.24,3.59,18.87,10a22.3,22.3,0,0,1,.59,4.38H680.66A4.08,4.08,0,0,0,682.54,58c2,1.71,5.88,2.8,11.81,2.8a25.94,25.94,0,0,0,9.48-1.46,7,7,0,0,0,2-1.51h7.1A7,7,0,0,1,711.42,60.38ZM705.5,49.07c-1.55-1.63-5.6-2.93-11.73-2.93-5.85,0-10.48,1.26-12.11,3.14a3.64,3.64,0,0,0-1,2.17h26.17A3.4,3.4,0,0,0,705.5,49.07Z" class="cls-1"/><path data-cppathid="10020" d="M735.05,65.52c-12.32,0-16.79-1.84-18.16-6.43a5.49,5.49,0,0,1-.3-1.55h6.31a2,2,0,0,0,.46,1.25c1,1.13,4,1.76,11.73,1.76,9.73,0,11.1-1.09,11.1-2.51,0-1.58-1.25-1.92-9.68-2.34-1.63-.08-4.55-.29-6.52-.41-9.22-.55-12.81-2.67-12.81-6.85,0-4.59,5.34-7.18,16-7.18s15.57,1.59,17.32,5.89a6.78,6.78,0,0,1,.38,1.83h-6.3a2.42,2.42,0,0,0-.38-.87c-1-1.09-3.84-1.8-10.6-1.8-9.19,0-10.36.88-10.36,2.17s1,1.67,9,2.09c2,.13,5,.29,7,.38,9.73.37,13.07,2.5,13.07,7C752.29,62.89,747.61,65.52,735.05,65.52Z" class="cls-1"/></svg>