<?xml version="1.0" encoding="UTF-8"?>
<svg xmlns="http://www.w3.org/2000/svg" onmouseup="{ if(window.parent.document.onmouseup) window.parent.document.onmouseup(arguments[0]);}" viewBox="0 0 683.56 96.69" data-name="Capa 1" id="Capa_1"><defs><style>.cls-1{fill:#fff;}</style></defs><title/><path data-cppathid="10000" d="M53.54,38.52a9,9,0,0,1-6.6,3.92l12,14.07H51.11L39.84,43.28H21.35V56.51H14.59V23.91H41.81c5.63,0,9.35,1.5,11.27,3.71a8.19,8.19,0,0,1,1.79,5.52A9.81,9.81,0,0,1,53.54,38.52Zm-6.06-6.93c-1-1.17-2.54-1.75-5.84-1.75H21.35v7.55H42.47c3,0,4.39-.5,5.1-1.58a3.72,3.72,0,0,0,.66-2.13A2.9,2.9,0,0,0,47.48,31.59Z" class="cls-1"/><path data-cppathid="10001" d="M99.41,51.88c-2.55,2.63-7.89,5.18-17.45,5.18-8.77,0-15.16-1.92-18-6.27a10.74,10.74,0,0,1-1.75-6A9.91,9.91,0,0,1,64,39.1c3-4,9.52-6.34,17.91-6.34,10.32,0,17.25,3.59,18.87,10a21.57,21.57,0,0,1,.59,4.38H68.64a4.12,4.12,0,0,0,1.88,2.38c2,1.71,5.88,2.8,11.81,2.8a25.86,25.86,0,0,0,9.48-1.46,6.83,6.83,0,0,0,2-1.51h7.1A7.06,7.06,0,0,1,99.41,51.88ZM93.48,40.57c-1.54-1.63-5.59-2.93-11.73-2.93-5.85,0-10.48,1.26-12.11,3.13a3.75,3.75,0,0,0-1,2.18H94.82A3.45,3.45,0,0,0,93.48,40.57Z" class="cls-1"/><path data-cppathid="10002" d="M137.06,42.74c-.8-3-4.72-4.6-12.19-4.6-5.93,0-10.23,1.26-12.32,3.68a5,5,0,0,0-1.13,3.26,5.17,5.17,0,0,0,1.17,3.29c1.88,2.34,6.51,3.47,12.32,3.47s9-.84,10.64-2.17A6.05,6.05,0,0,0,137,47.83h6.51a9.41,9.41,0,0,1-1.92,4.09C138.89,55,133.68,57,124.87,57c-9.15,0-15.28-2.25-18-5.88A10,10,0,0,1,104.91,45a9.51,9.51,0,0,1,2-6c3-3.8,9.23-6.18,18-6.18,9,0,14.48,2.26,17,6a9.89,9.89,0,0,1,1.5,3.93Z" class="cls-1"/><path data-cppathid="10003" d="M186.31,50.42c-2.84,4.09-8.93,6.59-18.37,6.59-8.89,0-15.19-2.5-18.16-6.51a10.14,10.14,0,0,1-1.84-5.59,8.87,8.87,0,0,1,1.76-5.39c3-4.09,9.06-6.72,18.24-6.72,9.52,0,15.37,2.92,18.2,6.6a9.19,9.19,0,0,1,.17,11Zm-6.26-8.81c-2.09-2-6.26-3.47-12.11-3.47s-9.77,1.34-12.15,3.51a4.81,4.81,0,0,0,0,6.6c1.93,2.13,6.31,3.59,12.11,3.59,6.14,0,10.19-1.34,12.23-3.63A5,5,0,0,0,181.51,45,4.32,4.32,0,0,0,180.05,41.61Z" class="cls-1"/><path data-cppathid="10004" d="M219.91,39.73a38.53,38.53,0,0,0-7.35-.67c-5.63,0-11,3-11,9.15v8.3h-6.47v-23h6.26v5.89c1.13-3.22,5.56-5.8,11.07-6.14a33.91,33.91,0,0,1,7.47.21Z" class="cls-1"/><path data-cppathid="10005" d="M254.3,37.27V23.62h6.35V53.76a22.55,22.55,0,0,0,.25,2.75h-6.26l-.17-4.25c-2,3.09-7.93,4.71-14,4.71-8.43,0-13.86-2.08-16.4-5.8a10.48,10.48,0,0,1-1.92-6.09A10.84,10.84,0,0,1,224,38.77c2.5-3.8,7.68-6,15.69-6C246.46,32.8,252,34.18,254.3,37.27Zm-24.46,4.21A5.48,5.48,0,0,0,228.59,45a5.19,5.19,0,0,0,1.25,3.51c2,2.25,6.1,3.34,12.11,3.34s10-1.17,11.6-3.67a5.43,5.43,0,0,0,.88-3.18,5.21,5.21,0,0,0-1.29-3.59c-2-2.17-5.93-3.3-11.74-3.3S231.59,39.31,229.84,41.48Z" class="cls-1"/><path data-cppathid="10006" d="M285.57,57c-12.32,0-16.79-1.83-18.17-6.42a5.83,5.83,0,0,1-.29-1.55h6.31a2,2,0,0,0,.46,1.25c1,1.13,4.05,1.76,11.73,1.76,9.72,0,11.1-1.09,11.1-2.51,0-1.58-1.25-1.92-9.68-2.34-1.63-.08-4.55-.29-6.52-.41-9.22-.55-12.81-2.68-12.81-6.85,0-4.59,5.34-7.18,16-7.18s15.57,1.59,17.32,5.89a6.78,6.78,0,0,1,.38,1.83h-6.3a2.61,2.61,0,0,0-.38-.87c-1-1.09-3.84-1.8-10.6-1.8-9.19,0-10.36.88-10.36,2.17s1,1.67,9,2.09c2,.12,5,.29,7,.37,9.73.38,13.07,2.51,13.07,7.06C302.81,54.39,298.13,57,285.57,57Z" class="cls-1"/></svg>