<?xml version="1.0" encoding="UTF-8"?>
<svg xmlns="http://www.w3.org/2000/svg" onmouseup="{ if(window.parent.document.onmouseup) window.parent.document.onmouseup(arguments[0]);}" viewBox="0 0 833.1 96.69" data-name="Capa 1" id="Capa_1"><defs><style>.cls-1{fill:#fff;}</style></defs><title/><path data-cppathid="10000" d="M59.6,56.71c-3,5.51-9.64,8.81-21.71,8.81S18.77,61.88,15.6,56.87a15.7,15.7,0,0,1-2.26-8.22,14.38,14.38,0,0,1,1.92-7.56c3.3-5.38,10.11-9.39,22.26-9.39s18.32,3.55,21.87,9.1a12.37,12.37,0,0,1,1.67,4.59H53.84a6.4,6.4,0,0,0-1.59-2.71c-2.21-2.42-7.14-4.63-14.78-4.63-8.09,0-14,2.38-16.24,6.55a8.71,8.71,0,0,0-.87,4A7.87,7.87,0,0,0,21.48,53c2.76,4.43,9.69,6.35,16,6.35,7.39,0,12.27-1.09,15.36-4.76A6.64,6.64,0,0,0,54.05,52h7.14A17.4,17.4,0,0,1,59.6,56.71Z" class="cls-1"/><path data-cppathid="10001" d="M103.84,58.92c-2.83,4.09-8.93,6.6-18.36,6.6-8.9,0-15.2-2.51-18.17-6.52a10.2,10.2,0,0,1-1.83-5.59A8.86,8.86,0,0,1,67.23,48c3-4.09,9.06-6.72,18.25-6.72,9.51,0,15.36,2.92,18.2,6.6a9.17,9.17,0,0,1,.16,11Zm-6.26-8.81c-2.09-2-6.26-3.46-12.1-3.46S75.71,48,73.33,50.15a4.79,4.79,0,0,0,0,6.6c1.92,2.13,6.3,3.59,12.11,3.59,6.13,0,10.18-1.34,12.23-3.63A5,5,0,0,0,99,53.45,4.28,4.28,0,0,0,97.58,50.11Z" class="cls-1"/><path data-cppathid="10002" d="M137.44,48.23a38.42,38.42,0,0,0-7.34-.67c-5.64,0-11,3-11,9.15V65h-6.47v-23h6.27v5.89c1.12-3.21,5.55-5.8,11.06-6.14a33.91,33.91,0,0,1,7.47.21Z" class="cls-1"/><path data-cppathid="10003" d="M167.62,48.23a38.45,38.45,0,0,0-7.35-.67c-5.63,0-11,3-11,9.15V65h-6.47v-23h6.26v5.89c1.13-3.21,5.56-5.8,11.07-6.14a33.91,33.91,0,0,1,7.47.21Z" class="cls-1"/><path data-cppathid="10004" d="M207.15,60.38c-2.55,2.63-7.89,5.18-17.45,5.18-8.77,0-15.15-1.92-18-6.26a10.79,10.79,0,0,1-1.75-6.06,9.78,9.78,0,0,1,1.8-5.63c3-4,9.52-6.35,17.91-6.35,10.31,0,17.24,3.59,18.87,10a22.28,22.28,0,0,1,.58,4.38H176.38A4.12,4.12,0,0,0,178.26,58c2,1.71,5.89,2.8,11.82,2.8a25.83,25.83,0,0,0,9.47-1.46,6.84,6.84,0,0,0,2-1.51h7.09A7.06,7.06,0,0,1,207.15,60.38Zm-5.93-11.31c-1.54-1.63-5.59-2.93-11.73-2.93-5.84,0-10.48,1.26-12.11,3.14a3.76,3.76,0,0,0-1,2.17h26.18A3.39,3.39,0,0,0,201.22,49.07Z" class="cls-1"/><path data-cppathid="10005" d="M244.8,51.24c-.79-3-4.72-4.59-12.19-4.59-5.93,0-10.23,1.25-12.32,3.67a5,5,0,0,0-1.12,3.26,5.16,5.16,0,0,0,1.16,3.29c1.88,2.34,6.52,3.47,12.32,3.47s9-.84,10.65-2.17a5.9,5.9,0,0,0,1.46-1.84h6.51a9.41,9.41,0,0,1-1.92,4.09c-2.71,3.09-7.93,5.1-16.74,5.1-9.14,0-15.28-2.26-18-5.89a10,10,0,0,1-1.92-6.18,9.51,9.51,0,0,1,2-6c3-3.8,9.23-6.18,18-6.18,9,0,14.49,2.26,17,6a9.89,9.89,0,0,1,1.5,3.93Z" class="cls-1"/><path data-cppathid="10006" d="M267.21,47.69v8.39c0,3.05,1.33,4.18,5,4.18a42.32,42.32,0,0,0,6.05-.51v4.93a34.56,34.56,0,0,1-8.06.84c-5.59,0-9.43-1.8-9.43-8.1V47.69h-7.06v-5.3h7.06c.16-1.55.16-5.89.16-5.89l6.23-.17v6.06h11.35v5.3Z" class="cls-1"/><path data-cppathid="10007" d="M285.74,38.92V32.33h6.72v6.59Zm.67,26.1c-.38-.09-.55-1.13-.55-3.47V42.05h6.52V61.51c0,2.59,0,3.17.58,3.51Z" class="cls-1"/><path data-cppathid="10008" d="M321.14,65H313.5l-16.41-23h7L317.34,60l13.19-17.91h6.81Z" class="cls-1"/><path data-cppathid="10009" d="M374.74,60.38c-2.55,2.63-7.89,5.18-17.45,5.18-8.77,0-15.16-1.92-18-6.26a10.71,10.71,0,0,1-1.75-6.06,9.85,9.85,0,0,1,1.79-5.63c3-4,9.52-6.35,17.91-6.35,10.31,0,17.24,3.59,18.87,10a22.3,22.3,0,0,1,.59,4.38H344A4.12,4.12,0,0,0,345.85,58c2,1.71,5.88,2.8,11.81,2.8a25.9,25.9,0,0,0,9.48-1.46,6.79,6.79,0,0,0,2-1.51h7.1A7.06,7.06,0,0,1,374.74,60.38Zm-5.93-11.31c-1.55-1.63-5.6-2.93-11.73-2.93-5.85,0-10.48,1.26-12.11,3.14a3.64,3.64,0,0,0-1,2.17h26.17A3.41,3.41,0,0,0,368.81,49.07Z" class="cls-1"/><path data-cppathid="10010" d="M404.11,65h-7.3l21.71-32.61h7.68L447.41,65h-7.56L435,57.75H409.08Zm20-24.3-1.92-3.22-2,3.22-7.64,11.14h19Z" class="cls-1"/><path data-cppathid="10011" d="M481.34,51.24c-.79-3-4.72-4.59-12.19-4.59-5.93,0-10.23,1.25-12.32,3.67a5,5,0,0,0-1.12,3.26,5.17,5.17,0,0,0,1.17,3.29c1.87,2.34,6.51,3.47,12.31,3.47s9-.84,10.65-2.17a5.9,5.9,0,0,0,1.46-1.84h6.51a9.41,9.41,0,0,1-1.92,4.09c-2.71,3.09-7.93,5.1-16.74,5.1-9.14,0-15.28-2.26-18-5.89a10,10,0,0,1-1.92-6.18,9.46,9.46,0,0,1,2-6c3-3.8,9.22-6.18,18-6.18,9,0,14.49,2.26,17,6a10.06,10.06,0,0,1,1.51,3.93Z" class="cls-1"/><path data-cppathid="10012" d="M503.75,47.69v8.39c0,3.05,1.34,4.18,5,4.18a42.2,42.2,0,0,0,6-.51v4.93a34.46,34.46,0,0,1-8,.84c-5.6,0-9.44-1.8-9.44-8.1V47.69h-7.06v-5.3h7.06c.17-1.55.17-5.89.17-5.89l6.22-.17v6.06H515v5.3Z" class="cls-1"/><path data-cppathid="10013" d="M522.28,38.92V32.33H529v6.59ZM523,65c-.38-.09-.54-1.13-.54-3.47V42.05h6.51V61.51c0,2.59,0,3.17.58,3.51Z" class="cls-1"/><path data-cppathid="10014" d="M575.09,58.92c-2.84,4.09-8.93,6.6-18.37,6.6-8.89,0-15.2-2.51-18.16-6.52a10.14,10.14,0,0,1-1.84-5.59A8.87,8.87,0,0,1,538.48,48c3-4.09,9.06-6.72,18.24-6.72,9.52,0,15.36,2.92,18.2,6.6a9.19,9.19,0,0,1,.17,11Zm-6.26-8.81c-2.09-2-6.26-3.46-12.11-3.46S547,48,544.57,50.15a4.81,4.81,0,0,0,0,6.6c1.92,2.13,6.31,3.59,12.11,3.59,6.14,0,10.19-1.34,12.23-3.63a5,5,0,0,0,1.34-3.26A4.32,4.32,0,0,0,568.83,50.11Z" class="cls-1"/><path data-cppathid="10015" d="M611.78,65c-.29,0-.46-1.38-.46-11.19,0-4.55-3.09-6.89-9.9-6.89-5.8,0-11.1,2.71-11.1,6.93V65h-6.43v-23h6.22v5.31c2.09-4.47,8.18-6,14.07-6,9.94,0,13.61,4.89,13.61,11.36,0,11.65.12,11.86.33,12.32Z" class="cls-1"/><path data-cppathid="10016" d="M642.62,65.52c-12.31,0-16.78-1.84-18.16-6.43a5.45,5.45,0,0,1-.29-1.55h6.3a2,2,0,0,0,.46,1.25c1,1.13,4.05,1.76,11.73,1.76,9.73,0,11.11-1.09,11.11-2.51,0-1.58-1.25-1.92-9.69-2.33-1.63-.09-4.55-.3-6.51-.42-9.23-.55-12.82-2.67-12.82-6.85,0-4.59,5.35-7.18,16-7.18s15.58,1.59,17.33,5.89a6.78,6.78,0,0,1,.38,1.83h-6.31a2.56,2.56,0,0,0-.37-.87c-1-1.09-3.85-1.8-10.61-1.8-9.18,0-10.35.88-10.35,2.17s1,1.67,9,2.09c2,.13,5,.29,7,.38,9.72.37,13.06,2.5,13.06,7C659.86,62.89,655.19,65.52,642.62,65.52Z" class="cls-1"/></svg>