<?xml version="1.0" encoding="UTF-8"?>
<svg xmlns="http://www.w3.org/2000/svg" onmouseup="{ if(window.parent.document.onmouseup) window.parent.document.onmouseup(arguments[0]);}" viewBox="0 0 683.56 96.69" data-name="Capa 1" id="Capa_1"><defs><style>.cls-1{fill:#fff;}</style></defs><title/><path data-cppathid="10000" d="M34.12,36.12V62.63H27.28V36.12H8.91V30h43.5v6.1Z" class="cls-1"/><path data-cppathid="10001" d="M80.12,45.85a38.45,38.45,0,0,0-7.35-.67c-5.63,0-11,3-11,9.14v8.31H55.32v-23h6.27v5.88c1.12-3.21,5.55-5.8,11.06-6.13a33.91,33.91,0,0,1,7.47.21Z" class="cls-1"/><path data-cppathid="10002" d="M112,62.63A15.26,15.26,0,0,1,111.6,60c-1.51,1.54-6.56,3.13-15.2,3.13-9.31,0-14.49-2.09-14.49-6.76v-.63c0-5,5-7.51,18.12-7.56,3.22,0,8.77.34,11.65.63a4.21,4.21,0,0,0-.67-2.42c-1-1.34-4.05-2.46-10.48-2.46-5.88,0-8.81.71-10,1.88A2.44,2.44,0,0,0,90,47.18H83.62A7.09,7.09,0,0,1,84,45.39c1.46-4,6.6-6.47,16.24-6.47,10.9,0,15.78,2.42,17,7.55a24,24,0,0,1,.38,4.85c0,.83-.09,3.88-.09,5.76a18.6,18.6,0,0,0,.71,5.55ZM99.49,52.49c-6.14,0-9,.71-10.27,1.83a2,2,0,0,0-.54,1.38A1.47,1.47,0,0,0,89,56.78c1,1.13,3.72,1.76,8.22,1.76,8.81,0,14.45-1,14.45-5.55C108.92,52.74,104,52.49,99.49,52.49Z" class="cls-1"/><path data-cppathid="10003" d="M127.16,36.54v-6.6h6.72v6.6Zm.67,26.09c-.38-.08-.55-1.13-.55-3.47V39.67h6.52V59.12c0,2.59,0,3.18.58,3.51Z" class="cls-1"/><path data-cppathid="10004" d="M172.2,62.63c-.29,0-.46-1.38-.46-11.19,0-4.55-3.09-6.89-9.89-6.89-5.81,0-11.11,2.72-11.11,6.93V62.63h-6.43v-23h6.22V45c2.09-4.47,8.19-6,14.07-6,9.94,0,13.61,4.88,13.61,11.35,0,11.65.13,11.86.34,12.32Z" class="cls-1"/><path data-cppathid="10005" d="M188.06,36.54v-6.6h6.72v6.6Zm.67,26.09c-.38-.08-.55-1.13-.55-3.47V39.67h6.52V59.12c0,2.59,0,3.18.58,3.51Z" class="cls-1"/><path data-cppathid="10006" d="M233.1,62.63c-.29,0-.46-1.38-.46-11.19,0-4.55-3.09-6.89-9.89-6.89-5.81,0-11.11,2.72-11.11,6.93V62.63h-6.43v-23h6.22V45c2.09-4.47,8.19-6,14.07-6,9.94,0,13.61,4.88,13.61,11.35,0,11.65.13,11.86.34,12.32Z" class="cls-1"/><path data-cppathid="10007" d="M274.63,40.8c1.84-1.55,6.93-1.84,9.23-1.47V43.8c-2.55,0-5.43.17-6.18.63a5.36,5.36,0,0,1,1.71,2.84,7.32,7.32,0,0,1-.12,2.67c-.92,3.84-5.06,6.39-15.58,6.39A37.45,37.45,0,0,1,253.55,55a1.31,1.31,0,0,0-1.17,1.3c0,1,.88,1.58,13.07,1.58C279,58,283,59.37,283,63.8c0,5-6.43,7.39-19.79,7.39-14.23,0-18.45-2.76-18.45-6,0-2.55,2.92-3.8,5.39-4.18-2-.75-3.38-2-3.38-3.88a3.8,3.8,0,0,1,3.92-3.55,6.58,6.58,0,0,1-4.47-5.47,6.71,6.71,0,0,1,0-2c.71-4.05,5.77-7.39,16.2-7.39C268,38.71,272.17,39.58,274.63,40.8Zm1.71,23.42c0-1.55-1.46-1.59-11.27-1.84-4-.08-9.48,0-11.94-.13C251.92,62.42,251,63,251,64c0,1.25,2,2.46,11.82,2.46C274.05,66.47,276.3,65.55,276.34,64.22Zm-23.84-17a4.7,4.7,0,0,0,0,1.05c.25,2.38,3.68,3.67,10.23,3.67,7.31,0,10.06-1.38,10.4-3.71A6.32,6.32,0,0,0,273,47c-.41-2.08-3.29-3.46-10.22-3.46C256.18,43.51,252.88,44.8,252.5,47.22Z" class="cls-1"/></svg>