<?xml version="1.0" encoding="UTF-8"?>
<svg xmlns="http://www.w3.org/2000/svg" onmouseup="{ if(window.parent.document.onmouseup) window.parent.document.onmouseup(arguments[0]);}" viewBox="0 0 913.14 96.69" data-name="Capa 1" id="Capa_1"><defs><style>.cls-1{fill:#fff;}</style></defs><title/><path data-cppathid="10000" d="M59.73,62.63H50.84L40.73,37.41,30.63,62.63H21.74L6,30h7.47l12.61,27.1L36.6,30h8.27l10.56,27.1L68,30h6.84Z" class="cls-1"/><path data-cppathid="10001" d="M113.78,62.63h-6.51c-.33-.5-.42-1.71-.42-11.23,0-4.51-3-6.85-9.93-6.85-5.85,0-11.07,2.67-11.07,7.1v11H79.42V29.48h6.22V45c2-4.17,7.18-6,14.07-6,9.15,0,13.61,4.13,13.61,11.06C113.32,61.71,113.41,62.5,113.78,62.63Z" class="cls-1"/><path data-cppathid="10002" d="M150.26,62.63a15.26,15.26,0,0,1-.37-2.63c-1.51,1.54-6.56,3.13-15.2,3.13-9.31,0-14.49-2.09-14.49-6.76v-.63c0-5,5-7.51,18.12-7.55,3.22,0,8.77.33,11.65.62a4.21,4.21,0,0,0-.67-2.42c-1-1.34-4.05-2.46-10.48-2.46-5.88,0-8.81.71-10,1.88a2.44,2.44,0,0,0-.54,1.37h-6.39a7.09,7.09,0,0,1,.38-1.79c1.46-4,6.6-6.47,16.24-6.47,10.9,0,15.78,2.42,17,7.55a24,24,0,0,1,.38,4.85c0,.83-.09,3.88-.09,5.76a18.6,18.6,0,0,0,.71,5.55ZM137.78,52.49c-6.14,0-9,.71-10.27,1.83A2,2,0,0,0,127,55.7a1.47,1.47,0,0,0,.33,1.08c1,1.13,3.72,1.76,8.22,1.76,8.81,0,14.45-1,14.45-5.55C147.21,52.74,142.25,52.49,137.78,52.49Z" class="cls-1"/><path data-cppathid="10003" d="M173.84,45.3v8.4c0,3,1.34,4.17,5,4.17a43.9,43.9,0,0,0,6.05-.5V62.3a35.24,35.24,0,0,1-8.06.83c-5.59,0-9.43-1.79-9.43-8.1V45.3h-7.06V40h7.06c.17-1.54.17-5.88.17-5.88l6.22-.17v6h11.35v5.3Z" class="cls-1"/><path data-cppathid="10004" d="M211.07,36.54v-6.6h6.72v6.6Zm.67,26.09c-.38-.08-.54-1.13-.54-3.47V39.67h6.51V59.12c0,2.59,0,3.18.58,3.51Z" class="cls-1"/><path data-cppathid="10005" d="M243.63,63.13c-12.31,0-16.78-1.84-18.16-6.43a5.45,5.45,0,0,1-.29-1.54h6.3a2.06,2.06,0,0,0,.46,1.25c1,1.13,4.05,1.75,11.73,1.75,9.73,0,11.11-1.08,11.11-2.5,0-1.59-1.26-1.92-9.69-2.34-1.63-.08-4.55-.29-6.51-.42-9.23-.54-12.82-2.67-12.82-6.84,0-4.6,5.35-7.18,16-7.18s15.58,1.58,17.33,5.88a6.77,6.77,0,0,1,.38,1.84h-6.31a2.6,2.6,0,0,0-.37-.88c-1-1.08-3.84-1.79-10.61-1.79-9.18,0-10.35.87-10.35,2.17s1,1.67,9,2.09c2,.12,5,.29,7,.37,9.72.38,13.06,2.51,13.06,7.06C260.87,60.5,256.2,63.13,243.63,63.13Z" class="cls-1"/><path data-cppathid="10006" d="M335.47,51.48c0-3.75-1.76-6.93-8.94-6.93-5,0-9.31,2.05-9.31,6.93V62.63h-6V50.94c0-3.92-3.51-6.39-8.68-6.39-5.85,0-9.52,3.3-9.52,6.81V62.63h-6.43v-23h6.22V45c1.63-3.92,6.89-5.89,11.94-5.89,5.3,0,10,1.76,11.52,6,1.76-3.92,6.06-6,12.19-6,9.4,0,12.61,4.6,12.61,11.23,0,11.74,0,12,.42,12.32h-5.59C335.47,62.63,335.47,60.17,335.47,51.48Z" class="cls-1"/><path data-cppathid="10007" d="M363.22,70.4h-7.48l5.76-7.81L344.43,39.67h6.93L365,57.41l12.86-17.74h6.81Z" class="cls-1"/><path data-cppathid="10008" d="M416.14,63.09a82.83,82.83,0,0,1-11.1-.63V56.33a95.58,95.58,0,0,0,10.1.5c7.26,0,10.35-3.72,10.35-8.31V30h6.85V49.77C432.34,58,426,63.09,416.14,63.09Z" class="cls-1"/><path data-cppathid="10009" d="M478,56.53c-2.84,4.1-8.94,6.6-18.37,6.6-8.9,0-15.2-2.5-18.16-6.51a10.14,10.14,0,0,1-1.84-5.6,8.83,8.83,0,0,1,1.75-5.38c3-4.09,9.06-6.72,18.25-6.72,9.51,0,15.36,2.92,18.2,6.59a9.19,9.19,0,0,1,.17,11Zm-6.27-8.8c-2.08-2-6.26-3.47-12.1-3.47s-9.77,1.34-12.15,3.51a4.77,4.77,0,0,0,0,6.59c1.92,2.13,6.3,3.59,12.11,3.59,6.13,0,10.18-1.33,12.23-3.63a5,5,0,0,0,1.33-3.25A4.28,4.28,0,0,0,471.74,47.73Z" class="cls-1"/><path data-cppathid="10010" d="M523.59,45.72a11.08,11.08,0,0,1,1.25,5.35,10.41,10.41,0,0,1-1.38,5.38C521,60.63,515.32,63,507.72,63c-5.88,0-12-1.42-14.49-4.26v3.88h-6.42V29.48h6.42v14c1.93-2.38,6-4.47,14.41-4.47C516.4,39,521.46,41.67,523.59,45.72Zm-29.94,2.72a6.3,6.3,0,0,0-.62,2.75,5,5,0,0,0,.87,2.92c1.55,2.22,5.39,3.72,11.69,3.72,6.1,0,9.85-1.3,11.57-3.42A5.19,5.19,0,0,0,518.28,51a5.1,5.1,0,0,0-1.17-3.38c-1.92-2.34-6.21-3.42-11.68-3.42C498.62,44.22,495.07,46,493.65,48.44Z" class="cls-1"/><path data-cppathid="10011" d="M547,51.94h-6.77c.67-9.93,17-6.3,17.41-11.69a2,2,0,0,0,0-.71c-.29-3-3.46-4.46-11.39-4.46-7.06,0-10.07,1.75-10.86,4.13a7.57,7.57,0,0,0-.25,1.63H528a17.27,17.27,0,0,1,.84-3.72c1.5-3.76,6.14-7.76,17.7-7.76,13.86,0,18.79,3.17,19,9.31v1.12C565.12,49.77,547.62,45.93,547,51.94ZM539.9,62.63v-8.1h7.39v8.1Z" class="cls-1"/></svg>