<?xml version="1.0" encoding="UTF-8"?>
<svg xmlns="http://www.w3.org/2000/svg" onmouseup="{ if(window.parent.document.onmouseup) window.parent.document.onmouseup(arguments[0]);}" viewBox="0 0 325.63 96.69" data-name="Capa 1" id="Capa_1"><defs><style>.cls-1{fill:#fff;}</style></defs><title/><path data-cppathid="10000" d="M68.44,65.15a16.68,16.68,0,0,0,4.68,1.13l-3.3,5.21A23.33,23.33,0,0,1,62.52,69a26.76,26.76,0,0,1-6.43-5l-2.22-.12a25.2,25.2,0,0,1-14.69-5.3c-3.76-3.14-5.51-6.52-5.51-11.4a13.88,13.88,0,0,1,4.67-10.9c4.26-4.17,11-6,19.67-6s14.9,1.84,19.49,5.76c3.59,3,4.81,6.64,4.81,11.15a14.72,14.72,0,0,1-4.76,11.06A23.42,23.42,0,0,1,65,63.44,15.55,15.55,0,0,0,68.44,65.15Zm4.18-11a8.72,8.72,0,0,0,2.88-6.77,8.42,8.42,0,0,0-3.09-6.89C69.24,37.8,64.94,36.38,58,36.38c-6.64,0-11.78,1.51-14.49,4.09a8.86,8.86,0,0,0-3,6.89,8.35,8.35,0,0,0,3.76,7.43c3.38,2.51,7.68,3.59,13.78,3.59C64.73,58.38,69.36,57.22,72.62,54.13Z" class="cls-1"/><path data-cppathid="10001" d="M123.17,63.73H116.9l-.16-4.13c-3,3.88-8.77,4.71-14.2,4.71-8.39,0-13.48-2.5-13.48-9.81,0-13.23-.17-13.4-.42-13.73h6.64c.21,0,.25,5.63.25,11.56,0,5,2.46,6.56,9.6,6.56,6.85,0,11.4-2.84,11.4-6.68V40.77H123V59.09C123,62.35,123.17,63.6,123.17,63.73Z" class="cls-1"/><path data-cppathid="10002" d="M133.22,37.64V31h6.72v6.6Zm.67,26.09c-.38-.08-.55-1.13-.55-3.47V40.77h6.52V60.22c0,2.59,0,3.17.58,3.51Z" class="cls-1"/><path data-cppathid="10003" d="M147.87,63.73V58.89l21-12.53h-20.5V41.1h31.35v4.55l-21.5,12.86h22.71v5.22Z" class="cls-1"/></svg>