<?xml version="1.0" encoding="UTF-8"?>
<svg xmlns="http://www.w3.org/2000/svg" onmouseup="{ if(window.parent.document.onmouseup) window.parent.document.onmouseup(arguments[0]);}" viewBox="0 0 987.1 96.69" data-name="Capa 1" id="Capa_1"><defs><style>.cls-1{fill:#fff;}</style></defs><title/><path data-cppathid="10000" d="M67.48,47A9,9,0,0,1,60.88,51L72.87,65H65.06L53.79,51.78H35.29V65H28.53V32.41H55.75c5.64,0,9.35,1.5,11.27,3.72a8.15,8.15,0,0,1,1.8,5.51A9.72,9.72,0,0,1,67.48,47Zm-6.05-6.93c-1-1.17-2.55-1.75-5.85-1.75H35.29v7.55H56.42c3,0,4.38-.5,5.09-1.58a3.73,3.73,0,0,0,.67-2.13A3,3,0,0,0,61.43,40.09Z" class="cls-1"/><path data-cppathid="10001" d="M113.35,60.38c-2.54,2.63-7.89,5.18-17.45,5.18-8.77,0-15.15-1.92-18-6.26a10.73,10.73,0,0,1-1.76-6.06,9.78,9.78,0,0,1,1.8-5.63c3-4,9.52-6.35,17.91-6.35,10.31,0,17.24,3.59,18.87,10a22.28,22.28,0,0,1,.58,4.38H82.58A4.12,4.12,0,0,0,84.46,58c2,1.71,5.89,2.8,11.82,2.8a25.83,25.83,0,0,0,9.47-1.46,6.84,6.84,0,0,0,2-1.51h7.1A7.1,7.1,0,0,1,113.35,60.38Zm-5.93-11.31c-1.54-1.63-5.59-2.93-11.73-2.93-5.84,0-10.48,1.26-12.1,3.14a3.71,3.71,0,0,0-1,2.17h26.18A3.39,3.39,0,0,0,107.42,49.07Z" class="cls-1"/><path data-cppathid="10002" d="M151,51.24c-.79-3-4.72-4.59-12.19-4.59-5.93,0-10.23,1.25-12.32,3.67a5,5,0,0,0-1.12,3.26,5.17,5.17,0,0,0,1.17,3.29c1.88,2.34,6.51,3.47,12.31,3.47s9-.84,10.65-2.17A5.9,5.9,0,0,0,151,56.33h6.51a9.3,9.3,0,0,1-1.92,4.09c-2.71,3.09-7.93,5.1-16.74,5.1-9.14,0-15.28-2.26-18-5.89a10.09,10.09,0,0,1-1.91-6.18,9.51,9.51,0,0,1,2-6c3-3.8,9.22-6.18,18-6.18,9,0,14.49,2.26,17,6a10.06,10.06,0,0,1,1.51,3.93Z" class="cls-1"/><path data-cppathid="10003" d="M200.26,58.92c-2.84,4.09-8.94,6.6-18.37,6.6-8.9,0-15.2-2.51-18.16-6.52a10.14,10.14,0,0,1-1.84-5.59A8.86,8.86,0,0,1,163.64,48c3-4.09,9.06-6.72,18.25-6.72,9.51,0,15.36,2.92,18.2,6.6a9.19,9.19,0,0,1,.17,11ZM194,50.11c-2.08-2-6.26-3.46-12.1-3.46s-9.77,1.33-12.15,3.5a4.79,4.79,0,0,0,0,6.6c1.92,2.13,6.3,3.59,12.11,3.59,6.13,0,10.18-1.34,12.23-3.63a5,5,0,0,0,1.33-3.26A4.28,4.28,0,0,0,194,50.11Z" class="cls-1"/><path data-cppathid="10004" d="M233.85,48.23a38.34,38.34,0,0,0-7.34-.67c-5.64,0-11,3-11,9.15V65h-6.47v-23h6.26v5.89c1.12-3.21,5.55-5.8,11.06-6.14a33.91,33.91,0,0,1,7.47.21Z" class="cls-1"/><path data-cppathid="10005" d="M268.25,45.77V32.12h6.34V62.26a21.71,21.71,0,0,0,.26,2.75h-6.27l-.16-4.25c-2,3.09-7.94,4.71-14,4.71-8.43,0-13.86-2.08-16.41-5.8a10.48,10.48,0,0,1-1.92-6.09,10.94,10.94,0,0,1,1.88-6.31c2.5-3.8,7.68-6,15.7-6C260.4,41.3,265.91,42.68,268.25,45.77ZM243.78,50a5.43,5.43,0,0,0-1.25,3.54A5.19,5.19,0,0,0,243.78,57c2,2.26,6.1,3.34,12.11,3.34s10-1.17,11.61-3.67a5.49,5.49,0,0,0,.87-3.18,5.16,5.16,0,0,0-1.29-3.59c-2-2.17-5.93-3.29-11.73-3.29S245.54,47.81,243.78,50Z" class="cls-1"/><path data-cppathid="10006" d="M299.51,65.52c-12.32,0-16.78-1.84-18.16-6.43a5.45,5.45,0,0,1-.29-1.55h6.3a2,2,0,0,0,.46,1.25c1,1.13,4.05,1.76,11.73,1.76,9.73,0,11.11-1.09,11.11-2.51,0-1.58-1.26-1.92-9.69-2.33-1.63-.09-4.55-.3-6.51-.42-9.23-.55-12.82-2.67-12.82-6.85,0-4.59,5.34-7.18,16-7.18s15.57,1.59,17.33,5.89a6.68,6.68,0,0,1,.37,1.83h-6.3a2.42,2.42,0,0,0-.38-.87c-1-1.09-3.84-1.8-10.6-1.8-9.18,0-10.35.88-10.35,2.17s1,1.67,9,2.09c2,.13,5,.29,7,.38,9.73.37,13.07,2.5,13.07,7C316.75,62.89,312.08,65.52,299.51,65.52Z" class="cls-1"/><path data-cppathid="10007" d="M345,65h-7.3l21.7-32.6h7.69L388.25,65H380.7l-4.89-7.26H349.93Zm20-24.29L363,37.5l-2,3.22L353.4,51.86h19Z" class="cls-1"/><path data-cppathid="10008" d="M422.19,51.24c-.8-3-4.72-4.59-12.19-4.59-5.93,0-10.23,1.25-12.32,3.67a5,5,0,0,0-1.13,3.26,5.17,5.17,0,0,0,1.17,3.29c1.88,2.34,6.51,3.47,12.32,3.47s9-.84,10.64-2.17a5.79,5.79,0,0,0,1.47-1.84h6.51a9.41,9.41,0,0,1-1.92,4.09c-2.72,3.09-7.93,5.1-16.74,5.1-9.15,0-15.28-2.26-18-5.89A10,10,0,0,1,390,53.45a9.51,9.51,0,0,1,2-6c3-3.8,9.23-6.18,18-6.18,9,0,14.48,2.26,17,6a9.89,9.89,0,0,1,1.5,3.93Z" class="cls-1"/><path data-cppathid="10009" d="M444.6,47.69v8.39c0,3.05,1.33,4.18,5,4.18a42.32,42.32,0,0,0,6.05-.51v4.93a34.56,34.56,0,0,1-8.06.84c-5.59,0-9.43-1.8-9.43-8.1V47.69h-7.06v-5.3h7.06c.16-1.55.16-5.89.16-5.89l6.22-.17v6.06h11.36v5.3Z" class="cls-1"/><path data-cppathid="10010" d="M463.13,38.92V32.33h6.72v6.59ZM463.8,65c-.38-.08-.55-1.12-.55-3.46V42.05h6.52V61.51c0,2.59,0,3.17.58,3.5Z" class="cls-1"/><path data-cppathid="10011" d="M498.53,65h-7.64l-16.41-23h7L494.73,60l13.19-17.91h6.81Z" class="cls-1"/><path data-cppathid="10012" d="M519.1,38.92V32.33h6.72v6.59ZM519.77,65c-.38-.08-.54-1.12-.54-3.46V42.05h6.51V61.51c0,2.59,0,3.17.58,3.5Z" class="cls-1"/><path data-cppathid="10013" d="M545.07,47.69v8.39c0,3.05,1.33,4.18,5,4.18a42.34,42.34,0,0,0,6.06-.51v4.93a34.56,34.56,0,0,1-8.06.84c-5.59,0-9.43-1.8-9.43-8.1V47.69h-7.06v-5.3h7.06c.16-1.55.16-5.89.16-5.89l6.22-.17v6.06h11.36v5.3Z" class="cls-1"/><path data-cppathid="10014" d="M577.5,72.78H570L575.79,65,558.71,42.05h6.93L579.29,59.8l12.86-17.75H599Z" class="cls-1"/></svg>