<?xml version="1.0" encoding="UTF-8"?>
<svg xmlns="http://www.w3.org/2000/svg" onmouseup="{ if(window.parent.document.onmouseup) window.parent.document.onmouseup(arguments[0]);}" xml:space="preserve" style="enable-background:new 0 0 905.6 96.7;" viewBox="0 0 905.6 96.7" y="0px" x="0px" id="Capa_1" version="1.1" xmlns:xlink="http://www.w3.org/1999/xlink"><style type="text/css">
	.st0{fill:#274080;}
</style><path data-cppathid="10000" d="M50.9,71.3c-12.5,0-20.3-1.3-24.9-4.4c-3.4-2.3-5.7-6-6.1-10h9.5c0.2,1.7,1,3.2,2.4,4.2  c2.5,1.8,7.5,2.7,18.1,2.7c13.8,0,17.4-2.1,17.4-5.3s-2.7-4.3-14.7-5.1c-2.2-0.2-7.9-0.5-9.8-0.7c-16.8-1.2-22-4.9-22-11.9  c0-6.5,7.9-12.3,26.7-12.3c14.4,0,21.8,3.8,25.3,8.5c1.1,1.5,1.9,3.3,2.3,5.2h-9.6c-0.2-0.9-0.6-1.7-1.1-2.4  c-1.7-2.3-5.8-3.7-17.5-3.7c-13.4,0-17.2,1.5-17.2,4.7c0,2.9,3.1,3.7,16.6,4.7c2.5,0.2,8.9,0.7,11,0.8c14.3,1.1,19.1,5,19.1,11.8  C76.4,66.7,68.3,71.3,50.9,71.3z" class="st0"/><path data-cppathid="10001" d="M121.4,70.6c-0.3-1.1-0.4-2.2-0.5-3.3c-1.9,2-8.4,4-19.4,4c-11.9,0-18.5-2.7-18.5-8.6v-0.8  c0-6.4,6.4-9.6,23.1-9.6c4.1,0,11.2,0.4,14.8,0.8c0-1.1-0.3-2.2-0.9-3.1c-1.3-1.7-5.2-3.1-13.3-3.1c-7.5,0-11.2,0.9-12.7,2.4  c-0.4,0.5-0.6,1.1-0.7,1.8h-8.1c0.1-0.8,0.2-1.6,0.5-2.3c1.9-5.1,8.4-8.2,20.7-8.2c13.9,0,20.1,3.1,21.7,9.6c0.4,2,0.5,4.1,0.5,6.2  c0,1.1-0.1,4.9-0.1,7.3c-0.1,2.4,0.2,4.8,0.9,7.1H121.4z M105.5,57.7c-7.8,0-11.5,0.9-13.1,2.3c-0.4,0.5-0.7,1.1-0.7,1.7  c-0.1,0.5,0.1,1,0.4,1.4c1.3,1.4,4.7,2.2,10.5,2.2c11.2,0,18.4-1.3,18.4-7.1C117.5,58.1,111.2,57.7,105.5,57.7z" class="st0"/><path data-cppathid="10002" d="M175.7,70.6c-0.4,0-0.6-1.8-0.6-14.3c0-5.8-3.9-8.8-12.6-8.8c-7.4,0-14.1,3.5-14.1,8.8v14.2h-8.2V41.3h7.9v6.8  c2.7-5.7,10.4-7.6,17.9-7.6c12.7,0,17.3,6.2,17.3,14.5c0,14.8,0.2,15.1,0.4,15.7L175.7,70.6z" class="st0"/><path data-cppathid="10003" d="M195.9,37.4V29h8.6v8.4H195.9z M196.7,70.6c-0.5-0.1-0.7-1.4-0.7-4.4V41.4h8.3v24.8c0,3.3,0.1,4,0.8,4.5  L196.7,70.6z" class="st0"/><path data-cppathid="10004" d="M229,48.6v10.7c0,3.9,1.7,5.3,6.4,5.3c2.6,0,5.2-0.2,7.7-0.6v6.3c-3.4,0.8-6.8,1.1-10.3,1.1  c-7.1,0-12-2.3-12-10.3V48.6h-9v-6.8h9c0.2-2,0.2-7.5,0.2-7.5l7.9-0.2v7.7h14.5v6.8L229,48.6z" class="st0"/><path data-cppathid="10005" d="M287.2,70.6c-0.2-1.1-0.4-2.2-0.5-3.3c-1.9,2-8.4,4-19.4,4c-11.9,0-18.4-2.7-18.4-8.6v-0.8  c0-6.4,6.4-9.6,23.1-9.6c4.1,0,11.2,0.4,14.8,0.8c0-1.1-0.3-2.2-0.9-3.1c-1.3-1.7-5.2-3.1-13.3-3.1c-7.5,0-11.2,0.9-12.7,2.4  c-0.4,0.5-0.6,1.1-0.7,1.8H251c0.1-0.8,0.2-1.6,0.5-2.3c1.9-5.1,8.4-8.2,20.7-8.2c13.9,0,20.1,3.1,21.7,9.6c0.4,2,0.5,4.1,0.5,6.2  c0,1.1-0.1,4.9-0.1,7.3c-0.1,2.4,0.2,4.8,0.9,7.1L287.2,70.6z M271.2,57.7c-7.8,0-11.5,0.9-13.1,2.3c-0.4,0.5-0.7,1.1-0.7,1.7  c-0.1,0.5,0.1,1,0.4,1.4c1.3,1.4,4.7,2.2,10.5,2.2c11.2,0,18.4-1.3,18.4-7.1C283.2,58.1,277,57.7,271.2,57.7z" class="st0"/><path data-cppathid="10006" d="M317.1,48.6v10.7c0,3.9,1.7,5.3,6.4,5.3c2.6,0,5.2-0.2,7.7-0.6v6.3c-3.4,0.8-6.8,1.1-10.3,1.1  c-7.1,0-12-2.3-12-10.3V48.6H300v-6.8h8.9c0.2-2,0.2-7.5,0.2-7.5l7.9-0.2v7.7h14.5v6.8L317.1,48.6z" class="st0"/><path data-cppathid="10007" d="M340.7,37.4V29h8.6v8.4H340.7z M341.6,70.7c-0.5-0.1-0.7-1.4-0.7-4.4V41.4h8.3v24.8c0,3.3,0,4,0.8,4.5H341.6z" class="st0"/><path data-cppathid="10008" d="M408,62.9c-3.7,5.2-11.3,8.4-23.4,8.4c-11.3,0-19.3-3.2-23.1-8.3c-1.5-2.1-2.3-4.6-2.3-7.1  c0-2.5,0.7-4.9,2.2-6.9c3.8-5.2,11.5-8.6,23.2-8.6c12.1,0,19.6,3.7,23.2,8.4C411,52.9,411,58.7,408,62.9L408,62.9z M400,51.7  c-2.7-2.5-8-4.4-15.4-4.4s-12.4,1.7-15.5,4.5c-1.1,1.1-1.6,2.6-1.6,4.2c0,1.6,0.6,3.1,1.7,4.2c2.4,2.7,8,4.6,15.4,4.6  c7.8,0,13-1.7,15.6-4.6c1-1.1,1.7-2.6,1.7-4.2C401.9,54.3,401.2,52.7,400,51.7z" class="st0"/><path data-cppathid="10009" d="M454.7,70.6c-0.4,0-0.6-1.8-0.6-14.3c0-5.8-3.9-8.8-12.6-8.8c-7.4,0-14.1,3.5-14.1,8.8v14.2h-8.2V41.3h7.9v6.8  c2.7-5.7,10.4-7.6,17.9-7.6c12.7,0,17.3,6.2,17.3,14.5c0,14.8,0.2,15.1,0.4,15.7L454.7,70.6z" class="st0"/><path data-cppathid="10010" d="M549,53.5c-2.9,4.1-8.1,5.8-15.8,5.8H508v11.3h-8.6V29.1h33.8c7.7,0,12.9,1.8,15.4,5c2.1,3,3.1,6.6,2.9,10.2  C551.6,47.6,550.8,50.8,549,53.5z M541.9,39.9c-1.3-2.1-4.6-3.3-10.2-3.3H508v15h23.6c5.9,0,8.9-1.1,10.3-3.2c0.7-1.3,1-2.7,0.9-4.2  C542.8,42.6,542.5,41.2,541.9,39.9z" class="st0"/><path data-cppathid="10011" d="M592.7,49.3c-3.1-0.6-6.2-0.9-9.4-0.9c-7.2,0-14,3.8-14,11.7v10.6h-8.2V41.3h8v7.5c1.4-4.1,7.1-7.4,14.1-7.8  c3.2-0.3,6.4-0.2,9.5,0.3L592.7,49.3z" class="st0"/><path data-cppathid="10012" d="M644.3,62.9c-3.6,5.2-11.4,8.4-23.4,8.4c-11.3,0-19.4-3.2-23.1-8.3c-1.5-2.1-2.3-4.6-2.3-7.1  c0-2.5,0.8-4.9,2.2-6.9c3.8-5.2,11.5-8.6,23.2-8.6c12.1,0,19.6,3.7,23.2,8.4C647.3,52.9,647.4,58.6,644.3,62.9L644.3,62.9z   M636.4,51.7c-2.7-2.5-8-4.4-15.4-4.4c-7.5,0-12.4,1.7-15.5,4.5c-2.2,2.4-2.2,6,0,8.4c2.4,2.7,8,4.6,15.4,4.6c7.8,0,13-1.7,15.6-4.6  c1.1-1.1,1.7-2.6,1.7-4.2C638.2,54.3,637.6,52.8,636.4,51.7L636.4,51.7z" class="st0"/><path data-cppathid="10013" d="M688.8,42.9c2.3-2,8.8-2.3,11.8-1.9v5.7c-3.2,0-6.9,0.2-7.9,0.8c1.1,0.9,1.8,2.2,2.2,3.6  c0.2,1.1,0.1,2.3-0.2,3.4c-1.2,4.9-6.4,8.1-19.8,8.1c-4.4,0-8.7-0.5-12.9-1.6c-0.8,0.1-1.5,0.8-1.5,1.6c0,1.3,1.1,2,16.6,2  c17.2,0,22.4,1.9,22.4,7.5c0,6.4-8.2,9.4-25.2,9.4c-18.1,0-23.5-3.5-23.5-7.6c0-3.2,3.7-4.8,6.9-5.3c-2.5-1-4.3-2.5-4.3-5  c0.2-2.6,2.4-4.6,5-4.5c-3.1-1-5.3-3.8-5.6-7c-0.1-0.8-0.1-1.7,0.1-2.5c0.9-5.1,7.3-9.4,20.6-9.4C680.3,40.2,685.7,41.3,688.8,42.9z   M691,72.7c0-2-1.9-2-14.4-2.3c-5.1-0.1-12.1,0-15.2-0.2c-1.5,0.2-2.7,0.9-2.7,2.2c0,1.6,2.5,3.1,15.1,3.1  C688,75.6,690.9,74.4,691,72.7z M660.6,51c-0.1,0.4-0.1,0.8-0.1,1.3c0.3,3,4.7,4.7,13,4.7c9.3,0,12.8-1.8,13.2-4.7  c0-0.5,0-1.1,0-1.6c-0.5-2.7-4.2-4.4-13-4.4C665.3,46.3,661.1,48,660.6,51L660.6,51z" class="st0"/><path data-cppathid="10014" d="M737.5,49.3c-3.1-0.6-6.2-0.9-9.4-0.9c-7.2,0-14,3.8-14,11.7v10.6h-8.2V41.3h8v7.5c1.4-4.1,7.1-7.4,14.1-7.8  c3.2-0.3,6.4-0.2,9.5,0.3L737.5,49.3z" class="st0"/><path data-cppathid="10015" d="M778,70.6c-0.2-1.1-0.4-2.2-0.5-3.3c-1.9,2-8.4,4-19.4,4c-11.9,0-18.4-2.7-18.4-8.6v-0.8  c0-6.4,6.4-9.6,23.1-9.6c4.1,0,11.2,0.4,14.8,0.8c0-1.1-0.3-2.2-0.9-3.1c-1.3-1.7-5.2-3.1-13.3-3.1c-7.5,0-11.2,0.9-12.7,2.4  c-0.4,0.5-0.6,1.1-0.7,1.8h-8.1c0.1-0.8,0.2-1.6,0.5-2.3c1.9-5.1,8.4-8.2,20.7-8.2c13.9,0,20.1,3.1,21.7,9.6c0.4,2,0.5,4.1,0.5,6.2  c0,1.1-0.1,4.9-0.1,7.3c-0.1,2.4,0.3,4.8,0.9,7.1H778z M762.2,57.7c-7.8,0-11.5,0.9-13.1,2.3c-0.4,0.5-0.7,1.1-0.7,1.7  c-0.1,0.5,0.1,1,0.4,1.4c1.3,1.4,4.7,2.2,10.5,2.2c11.2,0,18.4-1.3,18.4-7.1C774.2,58.1,767.8,57.7,762.2,57.7z" class="st0"/><path data-cppathid="10016" d="M859.1,56.5c0-4.8-2.2-8.8-11.4-8.8c-6.4,0-11.9,2.5-11.9,8.8v14.2h-7.6V55.8c0-5-4.5-8.1-11.1-8.1  c-7.4,0-12.1,4.2-12.1,8.7v14.3h-8.2V41.3h7.9v6.8c2.1-5,8.8-7.5,15.2-7.5c6.8,0,12.7,2.2,14.7,7.6c2.2-5,7.7-7.6,15.5-7.6  c12,0,16.1,5.8,16.1,14.3c0,14.9,0,15.3,0.5,15.7h-7.1C859.1,70.6,859.1,67.5,859.1,56.5z" class="st0"/></svg>